<svg width="42px" height="36px" viewBox="0 0 42 36" version="1.1" xmlns="http://www.w3.org/2000/svg" xmlns:xlink="http://www.w3.org/1999/xlink">
    <g stroke="none" stroke-width="1" fill="none" fill-rule="evenodd">
        <g transform="translate(-675.000000, -875.000000)" fill="#e4973a">
            <g transform="translate(0.000000, 75.000000)">
                <g transform="translate(675.000000, 800.000000)">
                    <path d="M5.74542857,12.534 C5.74542857,16.5342857 9.00342857,19.7922857 13.0045714,19.7922857 C17.0091429,19.7922857 20.2637143,16.5342857 20.2637143,12.534 C20.2637143,8.52942857 17.0091429,5.27485714 13.0045714,5.27485714 C9.00342857,5.27485714 5.74542857,8.52942857 5.74542857,12.534 L5.74542857,12.534 Z M13.0045714,17.7334286 C10.1382857,17.7334286 7.80428571,15.3994286 7.80428571,12.534 C7.80428571,11.5457143 8.08628571,10.6285714 8.56457143,9.84171429 C9.73028571,11.0271429 11.34,11.4985714 12.9642857,11.844 C15.0034286,12.276 17.1762857,12.4937143 17.622,14.8937143 C17.6245714,14.9005714 17.6245714,14.904 17.628,14.9108571 C16.7614286,16.5848571 15.0171429,17.7334286 13.0045714,17.7334286 L13.0045714,17.7334286 Z M18.1268571,11.6494286 C15.9471429,9.86142857 12.0968571,10.5008571 9.96085714,8.32457143 C10.818,7.70228571 11.8662857,7.33028571 13.0045714,7.33028571 C15.5725714,7.33028571 17.7051429,9.20228571 18.1268571,11.6494286 L18.1268571,11.6494286 Z"></path>
                    <path d="M28.6105714,0.852 C26.2834286,0.852 24.3848571,2.74714286 24.3848571,5.07685714 L24.3848571,5.52257143 L20.9802857,10.3808571 L24.3848571,9.98571429 L24.3848571,16.3105714 C24.3848571,18.6411429 26.2834286,20.5354286 28.6105714,20.5354286 L36.924,20.5354286 C39.2545714,20.5354286 41.1497143,18.6411429 41.1497143,16.3105714 L41.1497143,5.07685714 C41.1497143,2.74714286 39.2545714,0.852 36.924,0.852 L28.6105714,0.852 Z M39.0934286,5.07685714 L39.0934286,16.3105714 C39.0934286,17.5054286 38.1197143,18.48 36.924,18.48 L28.6105714,18.48 C27.4148571,18.48 26.4445714,17.5054286 26.4445714,16.3105714 L26.4445714,7.67828571 L25.2925714,7.80942857 L26.4445714,6.17228571 L26.4445714,5.07685714 C26.4445714,3.882 27.4148571,2.90742857 28.6105714,2.90742857 L36.924,2.90742857 C38.1197143,2.91085714 39.0934286,3.882 39.0934286,5.07685714 L39.0934286,5.07685714 Z"></path>
                    <path d="M1.02771429,36.0008571 L39.0702857,36.0008571 C39.6394286,36.0008571 40.098,35.5388571 40.098,34.9697143 C40.098,34.404 39.6394286,33.942 39.0702857,33.942 L24.5554286,33.942 C24.7765714,33.51 24.9042857,33.0342857 24.9042857,32.5328571 L23.6245714,23.784 C23.5748571,21.9085714 21.804,20.3982857 19.6302857,20.3982857 L15.0471429,20.3982857 L13.0851429,22.4245714 L13.0577143,22.3474286 L13.0011429,22.5111429 L12.984,22.5282857 L10.7845714,20.3982857 L6.378,20.3982857 C4.20857143,20.3982857 2.43771429,21.9085714 2.38714286,23.784 L1.11857143,32.382 L1.10828571,32.5328571 C1.10828571,33.0342857 1.23514286,33.51 1.45628571,33.942 L1.02771429,33.942 C0.458571429,33.942 0,34.404 0,34.9697143 C0,35.5388571 0.462,36.0008571 1.02771429,36.0008571 L1.02771429,36.0008571 Z M13.6577143,30.1782857 L13.0577143,30.5674286 L12.462,30.1782857 L13.0577143,28.4982857 L13.6577143,30.1782857 Z M3.16714286,32.5928571 L4.43314286,24.018 L4.44342857,23.8671429 C4.44342857,23.1008571 5.33057143,22.4545714 6.378,22.4545714 L9.95057143,22.4545714 L12.234,24.6711429 L9.98142857,31.0191429 L13.0577143,33.0248571 L16.1348571,31.0191429 L13.8548571,24.5871429 L15.9171429,22.4545714 L19.6302857,22.4545714 C20.682,22.4545714 21.5691429,23.1042857 21.5691429,23.8671429 L22.8445714,32.5928571 C22.7982857,33.3325714 21.9308571,33.942 20.91,33.942 L5.10257143,33.942 C4.08171429,33.942 3.21428571,33.3325714 3.16714286,32.5928571 L3.16714286,32.5928571 Z"></path>
                </g>
            </g>
        </g>
    </g>
</svg>
