<svg width="34px" height="42px" viewBox="0 0 34 42" version="1.1" xmlns="http://www.w3.org/2000/svg" xmlns:xlink="http://www.w3.org/1999/xlink">
    <g stroke="none" stroke-width="1" fill="none" fill-rule="evenodd">
        <g transform="translate(-675.000000, -960.000000)" fill="#e4973a">
            <g transform="translate(0.000000, 75.000000)">
                <path d="M701.834513,912.131394 L696.564498,910.960397 L696.564498,909.294953 C698.601271,907.82556 699.933899,905.438534 699.933899,902.740072 L699.933899,902.449863 C701.601769,901.448989 702.62948,899.67574 702.62948,897.705682 L702.62948,891.522888 C702.62948,888.046744 699.801834,885.219249 696.32569,885.219249 L687.826527,885.219249 C686.306643,885.219249 684.960975,886.130816 684.397235,887.539711 L684.234845,887.946671 C684.021661,888.480996 683.620614,888.91631 683.106,889.172708 C681.847365,889.802859 681.064982,891.068621 681.064982,892.476455 L681.064982,897.705682 C681.064982,899.675134 682.092542,901.449596 683.760412,902.449863 L683.760412,902.740072 C683.760412,905.437928 685.093646,907.82556 687.129964,909.294953 L687.129964,910.960397 L681.860404,912.130787 C677.820975,913.029314 675,916.544426 675,920.683321 L675,927 L708.694462,927 L708.694462,920.683321 C708.694462,916.545032 705.873942,913.029314 701.834513,912.131394 L701.834513,912.131394 Z M683.760412,895.964426 L683.760412,900.790939 C682.911162,900.009162 682.413076,898.902152 682.413076,897.705076 L682.413076,892.475848 C682.413076,891.582173 682.909343,890.777199 683.709466,890.378578 C684.517928,889.974043 685.149444,889.288852 685.487567,888.447791 L685.649805,888.04083 C686.007639,887.145336 686.862195,886.566736 687.826527,886.566736 L696.326296,886.566736 C699.05857,886.566736 701.281993,888.790159 701.281993,891.522888 L701.281993,897.705682 C701.281993,898.902758 700.783906,900.009769 699.933899,900.791545 L699.933899,895.965032 C699.933899,893.755256 698.136996,891.958202 695.927675,891.958202 C694.024181,891.958202 692.372231,893.312816 691.999083,895.178404 L691.969516,895.327755 L691.726007,895.327755 L691.69644,895.178404 C691.323292,893.312816 689.671495,891.958202 687.767242,891.958202 C685.558072,891.958202 683.760412,893.755256 683.760412,895.964426 L683.760412,895.964426 Z M685.108505,902.740072 L685.108505,895.964426 C685.108505,894.49852 686.301336,893.30569 687.767242,893.30569 C689.030578,893.30569 690.126975,894.204823 690.374426,895.443141 L690.621422,896.67509 L693.074101,896.67509 L693.320491,895.443141 C693.568094,894.204823 694.664339,893.30569 695.927675,893.30569 C697.393581,893.30569 698.586563,894.49852 698.586563,895.964426 L698.586563,902.740072 C698.586563,906.456087 695.563473,909.479177 691.847458,909.479177 C688.131444,909.479177 685.108505,906.456087 685.108505,902.740072 L685.108505,902.740072 Z M688.478058,911.313986 L688.478058,910.082036 C689.505011,910.555256 690.644014,910.827119 691.847458,910.827119 C693.051054,910.827119 694.189906,910.555256 695.217011,910.082036 L695.217011,911.313986 L691.847458,916.930007 L688.478058,911.313986 Z M691.120722,918.338448 L687.18561,915.880007 L687.658224,912.568527 L691.120722,918.338448 Z M696.036087,912.568527 L696.509307,915.878794 L692.573588,918.337993 L696.036087,912.568527 Z M700.608022,925.652664 L683.087047,925.652664 L683.087047,922.957083 L681.738953,922.957083 L681.738953,925.652664 L676.348094,925.652664 L676.348094,920.683321 C676.348094,917.18231 678.734968,914.206679 682.151827,913.447495 L683.760412,913.089661 L683.760412,918.239588 L681.738953,918.239588 C680.252426,918.239588 679.043523,919.449097 679.043523,920.935018 L679.043523,924.30457 L681.064982,924.30457 L681.064982,922.957083 L680.391617,922.957083 L680.391617,920.935018 C680.391617,920.191755 680.99569,919.587682 681.738953,919.587682 L687.129964,919.587682 C687.873227,919.587682 688.478058,920.191755 688.478058,920.935018 L688.478058,922.957083 L687.803935,922.957083 L687.803935,924.30457 L689.825394,924.30457 L689.825394,920.935018 C689.825394,919.448491 688.616643,918.239588 687.129964,918.239588 L685.108505,918.239588 L685.108505,912.790051 L686.303155,912.524708 L685.72683,916.556859 L691.847458,920.382498 L697.967632,916.556859 L697.391307,912.524708 L698.586563,912.790051 L698.586563,918.335567 C697.426181,918.63639 696.564498,919.682448 696.564498,920.935018 C696.564498,922.421697 697.773249,923.630599 699.259928,923.630599 C699.753314,923.630599 700.209401,923.487769 700.608022,923.256238 L700.608022,925.652664 Z M699.259928,919.587682 C700.003191,919.587682 700.608022,920.191755 700.608022,920.935018 C700.608022,921.678433 700.003191,922.283112 699.259928,922.283112 C698.516664,922.283112 697.91244,921.678433 697.91244,920.935018 C697.91244,920.191755 698.516664,919.587682 699.259928,919.587682 L699.259928,919.587682 Z M707.346975,925.652664 L701.955357,925.652664 L701.955357,922.957083 L701.024383,922.957083 C701.590549,922.462029 701.955357,921.744693 701.955357,920.935018 C701.955357,919.682448 701.093675,918.63639 699.933899,918.335567 L699.933899,913.089661 L701.542635,913.447495 C704.960101,914.206679 707.346975,917.18231 707.346975,920.683321 L707.346975,925.652664 Z"></path>
            </g>
        </g>
    </g>
</svg>
