<svg width="42px" height="42px" viewBox="0 0 42 42" version="1.1" xmlns="http://www.w3.org/2000/svg" xmlns:xlink="http://www.w3.org/1999/xlink">
    <defs>
        <polygon id="path-1" points="0.00613138686 0.0332116788 0.00613138686 12.7031095 24.3838102 12.7031095 24.3838102 0.0332116788 0.00613138686 0.0332116788"></polygon>
    </defs>
    <g stroke="none" stroke-width="1" fill="none" fill-rule="evenodd">
        <g transform="translate(-675.000000, -676.000000)">
            <g transform="translate(0.000000, 75.000000)">
                <g transform="translate(675.000000, 601.000000)">
                    <path d="M38.1746277,1.41154745 L18.0752263,1.41154745 C17.574292,1.41154745 17.168292,1.81754745 17.168292,2.31848175 L17.168292,9.38633577 L18.1742482,8.76164964 C18.430438,8.60233577 18.7034891,8.49544526 18.9825693,8.43627737 L18.9825693,3.22582482 L37.2673869,3.22582482 L37.2673869,16.3073431 L18.9825693,16.3073431 L18.9825693,14.1908905 L17.168292,15.3170219 L17.168292,17.2142774 C17.168292,17.7152117 17.574292,18.1216204 18.0752263,18.1216204 L38.1746277,18.1216204 C38.6752555,18.1216204 39.081562,17.7152117 39.081562,17.2142774 L39.081562,2.31848175 C39.081562,1.81754745 38.6752555,1.41154745 38.1746277,1.41154745 L38.1746277,1.41154745 Z" fill="#e4973a"></path>
                    <path d="M24.9874453,6.44643796 C24.7487299,6.14385401 24.3100292,6.09235036 24.0074453,6.33065693 L20.8829927,8.79394161 C21.1811825,8.98922628 21.4430949,9.25021898 21.6434891,9.57283212 C21.7002044,9.66418978 21.7496642,9.758 21.7936058,9.85344526 L24.8716642,7.42643796 C25.1742482,7.18772263 25.2260584,6.7490219 24.9874453,6.44643796 L24.9874453,6.44643796 Z" fill="#e4973a"></path>
                    <path d="M12.5174307,2.65141606 C12.5174307,4.09321168 11.3486861,5.26246715 9.90678832,5.26246715 C8.4649927,5.26246715 7.29614599,4.09321168 7.29614599,2.65141606 C7.29614599,1.20962044 8.4649927,0.0407737226 9.90678832,0.0407737226 C11.3486861,0.0407737226 12.5174307,1.20962044 12.5174307,2.65141606 L12.5174307,2.65141606 Z" fill="#e4973a"></path>
                    <path d="M20.5732555,10.2373723 C20.2063942,9.64661314 19.4300584,9.4650219 18.8388905,9.83188321 L16.2877226,11.4158248 C16.2768905,9.30018978 16.2825109,10.4230511 16.2757664,9.06024818 C16.2676934,7.42480292 14.930438,6.09439416 13.2950949,6.09439416 L12.055635,6.09439416 C10.9969489,8.84033577 11.337854,7.82078832 10.4392993,10.151635 L10.8172993,8.50576642 C10.8432555,8.38283212 10.8245547,8.25427737 10.7634453,8.14370803 L10.2516788,7.21245255 L10.7060146,6.38614599 C10.7738686,6.26280292 10.6844526,6.11145985 10.5435328,6.11145985 L9.29528467,6.11145985 C9.15477372,6.11145985 9.06494891,6.26280292 9.13280292,6.38614599 L9.58826277,7.21408759 L9.07537226,8.14728467 C9.01589781,8.25550365 8.99627737,8.38160584 9.02029197,8.50259854 L9.34760584,10.151635 C9.17112409,9.69413139 7.95128467,6.52941606 7.78318248,6.09439416 L6.5189927,6.09439416 C4.88354745,6.09439416 3.54629197,7.42480292 3.53791241,9.06024818 L3.49121168,18.3147591 C3.4880438,19.0105693 4.04886131,19.5770073 4.74467153,19.5805839 L4.7510073,19.5805839 C5.4439562,19.5805839 6.00722628,19.0209927 6.01080292,18.3272263 L6.05709489,9.0730219 L6.05709489,9.06862774 C6.05913869,8.93128467 6.17175182,8.82153285 6.3089927,8.82235036 C6.44633577,8.82357664 6.55690511,8.93486131 6.55690511,9.07220438 L6.55731387,22.184073 C7.71052555,22.1349197 8.77912409,22.5509343 9.58070073,23.2813869 L9.58070073,18.1662774 L10.2333869,18.1662774 L10.2333869,24.0338102 C10.6932409,24.7096934 10.9622044,25.5251679 10.9622044,26.4025693 C10.9622044,27.2016934 10.7387153,27.9498248 10.3515182,28.5876934 C10.7494453,28.589635 11.1355182,28.642365 11.5039124,28.7397518 C12.0009635,28.3090219 12.5984672,27.9917226 13.2567737,27.8296496 C13.2567737,4.99258394 13.2291825,19.1123504 13.2291825,9.07424818 C13.2291825,8.92852555 13.3469051,8.81080292 13.492219,8.81080292 C13.6379416,8.81039416 13.7556642,8.92770803 13.7564818,9.0730219 C13.7608759,9.95635036 13.7748759,12.7183358 13.7796788,13.6799416 C13.7820292,14.1358102 14.0307591,14.5552993 14.4299124,14.7761314 C14.8282482,14.9960438 15.3156934,14.9849051 15.703708,14.7437372 L20.1676642,11.9722482 C20.7585255,11.6053869 20.9405255,10.8286423 20.5732555,10.2373723 L20.5732555,10.2373723 Z" fill="#e4973a"></path>
                    <path d="M37.824219,26.4329197 C37.824219,27.9589197 36.5871095,29.196438 35.0607007,29.196438 C33.5345985,29.196438 32.2971825,27.9589197 32.2971825,26.4329197 C32.2971825,24.9064088 33.5345985,23.6694015 35.0607007,23.6694015 C36.5871095,23.6694015 37.824219,24.9064088 37.824219,26.4329197 L37.824219,26.4329197 Z" fill="#e4973a"></path>
                    <path d="M41.784073,33.2165839 C41.7752847,31.4852847 40.3597518,30.0770073 38.6285547,30.0770073 L31.6972263,30.0770073 C31.9945985,30.6545839 32.1638248,31.3089051 32.1638248,32.0022628 C32.1638248,32.7383358 31.9670073,33.5075182 31.5506861,34.191781 C33.0958978,34.2540146 34.4503212,35.0834891 35.2414745,36.3089489 L38.5590657,36.3089489 L38.5590657,33.2488759 C38.5590657,33.0983504 38.6784234,32.9745985 38.8289489,32.9698978 C38.9793723,32.9646861 39.1071095,33.0796496 39.1171241,33.2297664 L39.1171241,33.230073 L39.1326569,36.3089489 L41.7996058,36.3089489 L41.784073,33.2165839 Z" fill="#e4973a"></path>
                    <path d="M23.717635,32.0022628 C23.717635,31.2969489 23.8924818,30.6318978 24.1994599,30.0466569 L18.0461022,30.0466569 C18.3298832,30.6139124 18.4907299,31.2530073 18.4907299,31.9291971 C18.4907299,32.723927 18.2676496,33.4764526 17.8800438,34.1147299 C19.1517956,34.1206569 20.3253431,34.6491825 21.1732117,35.5261752 C21.9951241,34.7234745 23.115635,34.2252993 24.3483504,34.2184526 C23.9199708,33.5275474 23.717635,32.751927 23.717635,32.0022628 L23.717635,32.0022628 Z" fill="#e4973a"></path>
                    <g transform="translate(0.000000, 23.605839)">
                        <mask id="mask-2" fill="white">
                            <use xlink:href="#path-1"></use>
                        </mask>
                        <g></g>
                        <path d="M21.6207007,0.0332116788 C20.094292,0.0332116788 18.8571825,1.27021898 18.8571825,2.79632117 C18.8571825,4.31915328 20.0918394,5.55983942 21.6207007,5.55983942 C23.134438,5.55983942 24.3838102,4.33632117 24.3838102,2.79632117 C24.3838102,1.27185401 23.1491533,0.0332116788 21.6207007,0.0332116788 L21.6207007,0.0332116788 Z" fill="#e4973a" mask="url(#mask-2)"></path>
                        <path d="M10.0445401,8.32335766 C10.0445401,7.64870073 10.2041606,7.01124088 10.4868175,6.44480292 C10.3674599,6.43887591 10.8688029,6.44081752 3.17105109,6.44081752 C1.44864234,6.44081752 0.0243211679,7.84194161 0.0155328467,9.58039416 L0,12.7031095 L2.66694891,12.7031095 L2.68248175,9.5939854 C2.68329927,9.43988321 2.80817518,9.31572263 2.96227737,9.31613139 C3.1159708,9.31654015 3.24054015,9.44141606 3.24054015,9.59510949 L3.24054015,12.7031095 L6.97884672,12.7031095 C7.78440876,11.4150073 9.16989781,10.6062774 10.6776058,10.5443504 C10.2680292,9.88532847 10.0445401,9.12452555 10.0445401,8.32335766 L10.0445401,8.32335766 Z" fill="#e4973a" mask="url(#mask-2)"></path>
                    </g>
                    <path d="M6.73890511,23.6390511 C5.21290511,23.6390511 3.97538686,24.8760584 3.97538686,26.4021606 C3.97538686,27.9214161 5.20564964,29.1656788 6.73890511,29.1656788 C8.25417518,29.1656788 9.50242336,27.9381752 9.50242336,26.4021606 C9.50242336,24.8760584 8.26541606,23.6390511 6.73890511,23.6390511 L6.73890511,23.6390511 Z" fill="#e4973a"></path>
                    <path d="M34.513781,38.7755036 C34.5054015,37.0438978 33.0899708,35.6356204 31.3586715,35.6356204 L24.3682774,35.6356204 C22.6370803,35.6356204 21.1309051,37.0438978 21.1221168,38.7750949 L21.0994307,38.702438 C21.0910511,36.9779854 19.6819562,35.5629635 17.9443212,35.5629635 L10.9538248,35.5629635 C9.22262774,35.5629635 7.71655474,36.9712409 7.70776642,38.702438 L7.69182482,41.8979124 L10.3586715,41.8979124 L10.3743066,38.7156204 C10.3750219,38.5830803 10.4828321,38.4760876 10.6153723,38.4764964 C10.7479124,38.4769051 10.8553139,38.5843066 10.8553139,38.7168467 L10.8553139,41.8979124 L17.9179562,41.8979124 L17.9179562,38.7168467 C17.9179562,38.5751095 18.0325109,38.460146 18.1746569,38.4597372 C18.316292,38.4593285 18.432073,38.5738832 18.4328905,38.7156204 L18.4484234,41.8979124 L23.7731241,41.8979124 L23.7886569,38.7886861 L23.7886569,38.7882774 C23.7894745,38.6557372 23.8972847,38.5491533 24.0297226,38.549562 C24.1622628,38.549562 24.2696642,38.6573723 24.2696642,38.7899124 L24.2696642,41.8979124 L31.3323066,41.8979124 L31.3323066,38.7899124 C31.3323066,38.6477664 31.4468613,38.5328029 31.5890073,38.5323942 C31.7307445,38.5319854 31.8465255,38.6465401 31.8472409,38.7886861 L31.8628759,41.8975036 L34.5297226,41.8975036 L34.513781,38.7755036 Z" fill="#e4973a"></path>
                    <path d="M17.1498978,31.9184672 C17.1498978,33.4624526 15.898073,34.7142774 14.3540876,34.7142774 C12.81,34.7142774 11.5581752,33.4624526 11.5581752,31.9184672 C11.5581752,30.3743796 12.81,29.1229635 14.3540876,29.1229635 C15.898073,29.1229635 17.1498978,30.3743796 17.1498978,31.9184672 L17.1498978,31.9184672 Z" fill="#e4973a"></path>
                    <path d="M30.7315328,31.9910219 C30.7315328,33.5351095 29.4801168,34.7869343 27.9361314,34.7869343 C26.392146,34.7869343 25.1403212,33.5351095 25.1403212,31.9910219 C25.1403212,30.4470365 26.392146,29.1952117 27.9361314,29.1952117 C29.4801168,29.1952117 30.7315328,30.4470365 30.7315328,31.9910219 L30.7315328,31.9910219 Z" fill="#e4973a"></path>
                </g>
            </g>
        </g>
    </g>
</svg>
