<?xml version="1.0" encoding="UTF-8" standalone="no"?>
<svg xmlns:rdf="http://www.w3.org/1999/02/22-rdf-syntax-ns#" style="enable-background:new 0 0 29.3 29.3" xmlns="http://www.w3.org/2000/svg" xml:space="preserve" viewBox="0 0 29.3 29.3" version="1.1" y="0px" x="0px" xmlns:cc="http://creativecommons.org/ns#" xmlns:dc="http://purl.org/dc/elements/1.1/"><metadata><rdf:RDF><cc:Work rdf:about=""><dc:format>image/svg+xml</dc:format><dc:type rdf:resource="http://purl.org/dc/dcmitype/StillImage"/><dc:title/></cc:Work></rdf:RDF></metadata><g style="image-rendering:optimizeQuality;text-rendering:geometricPrecision;shape-rendering:geometricPrecision" fill-rule="evenodd" clip-rule="evenodd" transform="matrix(.0053054 0 0 .0053052 -41.106 -64.183)"><path fill="#4d4d4d" class="fil0" d="m10500 12098c1520 0 2752 1232 2752 2752s-1232 2752-2752 2752-2752-1232-2752-2752 1232-2752 2752-2752zm-1406 2704 616 230 239 767c15 49 75 67 115 35l343-280c36-30 87-31 125-4l619 450c43 31 103 8 114-44l454-2182c1-6 1-11 1-16 0-49-50-86-98-67l-2529 975c-31 12-46 41-46 69s16 56 47 67zm816 108 1204-742c22-13 44 16 25 33l-993 924c-35 33-58 76-64 123l-34 251c-4 34-51 37-61 5l-130-458c-15-52 7-108 53-136z"/></g></svg>
