<svg width="110px" height="108px" viewBox="0 0 110 108" version="1.1" xmlns="http://www.w3.org/2000/svg" xmlns:xlink="http://www.w3.org/1999/xlink">
    <g stroke="none" stroke-width="1" fill="none" fill-rule="evenodd" opacity="0.400000006">
        <g transform="translate(-195.000000, -2788.000000)">
            <g transform="translate(195.000000, 2788.000000)">
                <path d="M65.841,1.126 C70.723,1.126 74.68,5.259 74.68,10.356 C74.68,10.814 74.648,11.264 74.586,11.704 C76.207,9.638 78.669,8.319 81.425,8.319 C86.308,8.319 90.264,12.453 90.264,17.552 C90.264,19.234 89.831,20.812 89.078,22.17 C90.313,21.483 91.721,21.094 93.218,21.094 C98.1,21.094 102.058,25.229 102.058,30.327 C102.058,33.263 100.743,35.878 98.696,37.568 C99.156,37.492 99.627,37.45 100.108,37.45 C104.99,37.45 108.948,41.583 108.948,46.682 C108.948,50.327 106.924,53.477 103.987,54.978 C106.924,56.479 108.948,59.63 108.948,63.273 C108.948,68.373 104.99,72.505 100.108,72.505 C99.796,72.505 99.487,72.488 99.183,72.456 C100.95,74.144 102.058,76.569 102.058,79.268 C102.058,84.366 98.1,88.498 93.218,88.498 C91.799,88.498 90.459,88.146 89.271,87.526 C89.905,88.8 90.264,90.244 90.264,91.777 C90.264,96.877 86.308,101.01 81.425,101.01 C78.716,101.01 76.294,99.734 74.671,97.73 C74.495,102.667 70.61,106.613 65.841,106.613 C61.287,106.613 57.5391,103.016 57.0559,98.393 L57.0012,98.377 L57.0012,10.356 C57.0012,5.259 60.959,1.126 65.841,1.126" fill="#F7AAC8"></path>
                <path d="M99.147,71.873 C99.036,71.865 98.935,71.879 98.843,71.909 L98.661,71.873 C96.522,71.68 93.929,70.886 91.851,69.896 C87.378,67.763 84.567,63.881 84.496,58.858 C84.493,58.706 84.458,58.575 84.402,58.465 C84.789,55.354 84.598,52.213 83.476,49.479 C84.803,46.199 87.913,44.257 91.425,44.914 C91.323,47.007 91.894,49.191 92.737,51.169 C93.181,52.209 94.697,51.313 94.257,50.281 C92.872,47.03 92.462,43.354 95.13,40.668 C96.128,39.664 97.518,38.864 98.895,38.505 C102.89,37.938 106.376,40.48 107.615,44.212 C108.881,48.02 107.152,52.188 103.806,54.222 C98.389,52.783 93.397,55.832 91.387,60.934 C90.971,61.992 92.673,62.446 93.084,61.402 C94.783,57.091 99.063,54.685 103.586,55.986 C111.093,60.249 108.134,72.619 99.147,71.873 L99.147,71.873 Z M99.898,84.114 C97.869,87.694 93.39,88.915 89.75,87.177 C88.646,86.222 87.804,84.962 87.177,83.657 C85.432,80.037 86.81,76.217 89.078,73.197 C89.76,72.29 88.231,71.414 87.558,72.311 C86.543,73.66 85.745,75.117 85.241,76.643 C81.559,73.554 76.405,72.749 72.337,75.721 C71.431,76.382 72.308,77.911 73.226,77.241 C76.966,74.506 81.596,75.463 84.774,78.594 C84.529,80.261 84.665,81.984 85.303,83.713 C85.947,85.464 87.101,87.226 88.537,88.448 C90.177,92.119 89.267,96.276 86.23,98.901 C82.885,101.79 78.008,100.724 75.323,97.562 C75.194,97.41 75.042,97.328 74.887,97.299 C73.651,93.031 74.322,88.183 78.404,85.689 C79.371,85.099 78.487,83.575 77.516,84.17 C72.312,87.349 71.531,93.885 73.693,99.217 C73.054,102.9 70.254,105.9 66.366,106.225 C62.029,106.587 58.5398,102.941 58.0113,98.85 L57.9566,98.602 L57.9566,92.374 C58.1277,92.179 58.3922,91.872 58.4711,91.79 C59.0648,91.161 59.7273,90.604 60.431,90.103 C62.558,88.591 65.038,88.031 67.563,88.768 C68.655,89.084 69.118,87.385 68.031,87.067 C66.743,86.694 65.452,86.617 64.2,86.779 C65.183,84.657 67,82.897 69.254,82.258 C70.344,81.948 69.88,80.249 68.786,80.56 C65.61,81.46 63.12,84.151 62.122,87.278 C60.596,87.816 59.1773,88.697 57.9566,89.813 L57.9566,62.757 C62.984,64.988 69.025,64.69 73.892,62.262 C74.908,61.754 74.016,60.235 73.003,60.742 C71.178,61.652 69.15,62.222 67.081,62.432 C68.289,60.036 67.772,56.941 66.731,54.564 C66.278,53.526 64.762,54.423 65.212,55.453 C66.146,57.587 66.6,60.615 64.898,62.515 C62.486,62.461 60.093,61.902 57.9566,60.809 L57.9566,50.694 L57.9566,40.522 C62.187,37.907 67.593,39.743 71.157,42.664 C72.026,43.377 73.279,42.141 72.401,41.42 C70.985,40.26 69.316,39.249 67.537,38.545 C68.749,36.978 68.876,34.754 68.284,32.85 C67.947,31.77 66.247,32.23 66.586,33.316 C66.975,34.563 67.077,35.81 66.445,36.99 C66.276,37.305 65.905,37.72 65.679,37.936 C63.095,37.266 60.391,37.309 57.9566,38.505 L57.9566,20.035 L57.9566,11.665 C57.9566,7.318 59.6449,3.208 64.295,2.041 C64.818,1.909 65.356,1.886 65.894,1.871 C71.109,2.015 74.248,6.707 73.735,11.635 C73.662,12.816 73.086,14.345 72.412,15.491 C70.538,18.672 66.923,19.759 63.426,19.808 C62.292,19.825 62.29,21.586 63.426,21.568 C69.197,21.486 74.871,18.131 75.462,12.004 C78.124,9.001 82.217,8.232 85.691,10.417 C89.396,12.747 90.194,17.795 88.392,21.537 C85.916,22.953 84.301,25.154 83.572,27.646 C81.078,27.305 78.549,25.834 77.862,23.27 C77.568,22.175 75.87,22.641 76.164,23.736 C77.031,26.97 80.044,28.864 83.215,29.356 C82.968,31.285 83.213,33.313 83.961,35.236 C84.368,36.282 86.07,35.828 85.658,34.769 C83.921,30.297 85.113,25.301 89.512,22.923 C93.326,20.938 97.638,22.293 99.898,25.862 C102.151,29.425 101.19,34.104 98.203,36.875 C96.437,37.389 94.763,38.47 93.523,39.802 C92.573,40.82 91.988,41.965 91.682,43.168 C87.83,42.479 84.367,44.313 82.479,47.546 C81.653,46.254 80.56,45.097 79.142,44.141 C78.197,43.503 77.317,45.028 78.253,45.659 C79.497,46.499 80.767,48.265 81.573,49.874 C81.598,50.001 81.653,50.112 81.733,50.204 L81.805,50.355 C82.985,52.967 83.169,55.801 82.771,58.597 L82.738,58.829 C82.302,61.664 81.278,64.454 80.096,66.936 C79.61,67.954 81.127,68.848 81.616,67.822 C82.309,66.371 82.938,64.747 83.438,63.04 C85.52,69.265 91.947,73.023 98.661,73.634 L98.756,73.633 C101.396,76.536 101.843,80.683 99.898,84.114 L99.898,84.114 Z M105.561,55.175 C109.202,52.474 110.622,47.684 109.165,43.301 C107.902,39.5 104.499,37.067 100.703,36.75 C103.357,33.26 103.591,28.408 101.174,24.591 C98.877,20.959 94.543,19.554 90.61,20.628 C91.816,16.529 90.639,12.035 87.122,9.29 C83.6,6.542 78.835,6.897 75.515,9.523 C75.088,4.489 71.263,0.259 65.894,0.11 C60.19,0.269 56.1969,5.03 56.1969,10.586 L56.1969,16.839 L56.1969,45.478 L56.1969,91.819 C56.1266,91.997 56.134,92.166 56.1969,92.316 L56.1969,98.426 L56.1969,98.833 C56.1969,98.99 56.2398,99.137 56.3129,99.266 C57.1422,104.264 61.109,108.132 66.366,107.985 C70.948,107.857 74.332,104.236 75.31,100.028 C78.601,102.787 83.28,103.13 86.945,100.557 C90.563,98.018 91.751,93.444 90.688,89.362 C94.464,90.356 98.552,89.117 100.914,85.758 C103.519,82.053 103.455,77.229 100.981,73.609 C104.721,73.212 107.77,70.645 109.165,67.041 C110.824,62.761 109.116,57.846 105.561,55.175 L105.561,55.175 Z" fill="#F370A5"></path>
                <path d="M44.0234,1.113 C39.141,1.113 35.1836,5.246 35.1836,10.345 C35.1836,10.801 35.2172,11.25 35.2777,11.691 C33.657,9.624 31.1957,8.307 28.4387,8.307 C23.5566,8.307 19.5996,12.439 19.5996,17.538 C19.5996,19.222 20.0332,20.798 20.7859,22.155 C19.5508,21.472 18.1426,21.081 16.6465,21.081 C11.7637,21.081 7.8063,25.213 7.8063,30.312 C7.8063,33.251 9.1211,35.864 11.1684,37.556 C10.7078,37.478 10.2367,37.438 9.7555,37.438 C4.8738,37.438 0.9164,41.569 0.9164,46.668 C0.9164,50.313 2.9395,53.464 5.8766,54.965 C2.9395,56.465 0.9164,59.616 0.9164,63.261 C0.9164,68.359 4.8738,72.492 9.7555,72.492 C10.0684,72.492 10.3773,72.476 10.6816,72.441 C8.9145,74.129 7.8063,76.556 7.8063,79.254 C7.8063,84.354 11.7637,88.486 16.6465,88.486 C18.0645,88.486 19.4047,88.136 20.5934,87.515 C19.9594,88.787 19.5996,90.231 19.5996,91.764 C19.5996,96.863 23.5566,100.996 28.4387,100.996 C31.1484,100.996 33.5707,99.723 35.1926,97.719 C35.3688,102.654 39.2539,106.6 44.0234,106.6 C48.5777,106.6 52.3258,103.002 52.809,98.381 L52.8621,98.363 L52.8621,10.345 C52.8621,5.246 48.9055,1.113 44.0234,1.113" fill="#F7AAC8"></path>
                <path d="M43.75,106.213 C39.8762,106.104 37.066,102.8 36.4203,99.21 C38.5852,93.875 37.8047,87.338 32.5992,84.155 C31.6277,83.563 30.7445,85.085 31.7109,85.675 C35.7938,88.17 36.4648,93.02 35.2285,97.286 C35.0727,97.314 34.9215,97.396 34.7926,97.548 C32.127,100.688 27.9473,101.497 24.4238,99.28 C20.8383,97.025 19.9316,92.126 21.5797,88.435 C23.0383,87.189 24.0996,85.453 24.8125,83.7 C25.5055,81.999 25.634,80.253 25.3648,78.557 C28.5422,75.445 33.1582,74.501 36.8902,77.227 C37.8082,77.898 38.6848,76.37 37.7789,75.707 C33.7133,72.736 28.5629,73.54 24.8813,76.623 C24.3594,75.08 23.5445,73.611 22.557,72.297 C21.8844,71.401 20.3555,72.275 21.0371,73.185 C23.3656,76.285 24.5844,79.943 22.9395,83.646 C22.359,84.951 21.4574,86.221 20.366,87.163 C16.7598,88.887 12.7355,87.722 10.4605,84.485 C8.109,81.142 8.6965,76.562 11.3598,73.62 L11.4551,73.62 C18.1684,73.009 24.5961,69.252 26.6777,63.026 C27.1781,64.733 27.807,66.358 28.4996,67.81 C28.9887,68.833 30.5055,67.941 30.0191,66.923 C27.5953,61.837 25.9938,55.767 28.3105,50.343 L28.3746,50.201 C28.4656,50.098 28.5293,49.973 28.5488,49.826 C29.3363,48.223 30.6438,46.47 31.8621,45.647 C32.7969,45.017 31.918,43.489 30.9734,44.127 C29.5563,45.083 28.4625,46.241 27.6371,47.532 C25.7426,44.29 22.2621,42.454 18.3949,43.163 C18.102,42.058 17.582,40.99 16.7676,39.987 C15.5855,38.535 13.7313,37.389 11.9121,36.861 C8.8191,34 8.1285,29.535 10.2168,25.85 C12.298,22.177 16.9352,21.001 20.6035,22.91 C25.002,25.287 26.1941,30.285 24.4574,34.756 C24.0453,35.814 25.7477,36.269 26.1543,35.222 C26.902,33.299 27.1469,31.272 26.9016,29.343 C30.0719,28.853 33.0844,26.956 33.9512,23.725 C34.2449,22.627 32.548,22.161 32.2539,23.257 C31.5664,25.82 29.0383,27.293 26.5434,27.632 C25.8145,25.14 24.1988,22.939 21.7227,21.522 C19.9203,17.802 20.7465,13.509 23.8863,10.796 C27.182,7.95 31.9387,8.946 34.6527,11.981 C35.2383,18.115 40.9148,21.475 46.6902,21.555 C47.8258,21.569 47.8242,19.812 46.6902,19.795 C43.1113,19.744 39.6777,18.631 37.7035,15.478 C37.0063,14.361 36.452,12.785 36.3813,11.62 C35.8648,6.695 39.0074,2.002 44.223,1.857 C48.8246,1.984 52.0473,5.791 52.1586,10.267 C52.1676,10.636 52.1586,11.007 52.1586,11.377 L52.1586,19.341 L52.1586,38.491 C49.7258,37.296 47.0215,37.252 44.4391,37.921 C44.2461,37.734 43.9336,37.397 43.7719,37.147 C43.0059,35.976 43.1309,34.581 43.5293,33.305 C43.8684,32.218 42.1684,31.757 41.8316,32.837 C41.2387,34.74 41.3656,36.964 42.5785,38.531 C40.7992,39.236 39.1301,40.246 37.7148,41.408 C36.8363,42.128 38.0891,43.364 38.959,42.652 C42.5219,39.729 47.9285,37.895 52.1586,40.509 L52.1586,49.633 L52.1586,60.797 C50.023,61.891 47.6301,62.447 45.2172,62.503 C43.5156,60.603 43.9684,57.574 44.9031,55.439 C45.3539,54.41 43.8375,53.513 43.3832,54.551 C42.3418,56.929 41.8266,60.023 43.0348,62.419 C40.9648,62.209 38.9375,61.64 37.1117,60.729 C36.0992,60.223 35.2078,61.74 36.223,62.248 C41.0902,64.678 47.1313,64.976 52.1586,62.744 L52.1586,89.8 C50.9387,88.686 49.5188,87.803 47.9938,87.266 C46.9949,84.137 44.5051,81.449 41.3301,80.547 C40.2355,80.235 39.7715,81.935 40.8617,82.244 C43.1148,82.885 44.9324,84.644 45.9145,86.768 C44.6637,86.603 43.373,86.682 42.0855,87.057 C40.9973,87.373 41.4602,89.07 42.5527,88.753 C45.1344,88.002 47.4949,88.625 49.6848,90.09 C50.402,90.569 51.043,91.161 51.6449,91.776 C51.7246,91.858 51.9867,92.163 52.1586,92.359 L52.1586,98.59 L52.1047,98.837 C51.5512,103.109 48.107,106.333 43.75,106.213 L43.75,106.213 Z M6.5297,55.974 C11.0535,54.672 15.3324,57.077 17.0313,61.39 C17.4418,62.434 19.1445,61.978 18.7281,60.922 C16.7184,55.818 11.7266,52.77 6.3098,54.207 C2.8539,52.119 1.4176,48.086 2.4996,44.198 C3.5512,40.426 7.3695,37.946 11.2203,38.491 C12.5371,38.835 13.791,39.582 14.7988,40.48 C17.6996,43.065 17.252,46.999 15.8586,50.268 C15.4184,51.301 16.9348,52.198 17.3789,51.155 C18.2496,49.11 18.7922,46.972 18.6699,44.905 C22.1914,44.238 25.3105,46.18 26.6402,49.463 C25.5168,52.199 25.3266,55.342 25.7133,58.452 C25.6566,58.563 25.6223,58.693 25.6195,58.844 C25.548,63.927 22.7191,67.675 18.2645,69.883 C16.2148,70.899 13.5766,71.667 11.4551,71.86 L11.2727,71.896 C11.1813,71.867 11.0797,71.852 10.9691,71.86 C1.9813,72.605 -0.9781,60.235 6.5297,55.974 L6.5297,55.974 Z M53.9188,20.022 C53.9188,14.05 55.2301,6.192 49.9094,2.04 C48.2703,0.762 46.282,0.155 44.223,0.099 C38.8563,0.246 35.0293,4.472 34.6012,9.504 C31.3301,6.902 26.7633,6.618 23.1715,9.142 C19.4688,11.74 18.3031,16.463 19.5039,20.605 C15.5297,19.498 11.4254,21.042 8.9398,24.575 C6.3598,28.247 6.8141,33.268 9.4164,36.729 C5.5855,37.032 2.4098,39.52 0.9504,43.287 C-0.7086,47.568 1,52.495 4.5621,55.16 C1.0484,57.769 -0.3937,62.289 0.8031,66.583 C1.875,70.431 5.291,73.162 9.1391,73.59 C6.7461,77.082 6.6051,81.683 8.9398,85.375 C11.225,88.984 15.4996,90.374 19.423,89.349 C18.3578,93.387 19.5574,97.727 22.9934,100.406 C26.582,103.207 31.4656,102.787 34.798,100.018 C35.7676,104.303 39.15,107.59 43.75,107.973 C48.9746,108.408 52.9906,104.063 53.8023,99.252 C53.8754,99.125 53.9188,98.978 53.9188,98.821 L53.9188,92.304 C53.9813,92.153 53.9887,91.983 53.9188,91.807 L53.9188,50.682 L53.9188,20.022 L53.9188,20.022 Z" fill="#F370A5"></path>
            </g>
        </g>
    </g>
</svg>