<svg width="101px" height="120px" viewBox="0 0 101 120" version="1.1" xmlns="http://www.w3.org/2000/svg" xmlns:xlink="http://www.w3.org/1999/xlink">
    <g stroke="none" stroke-width="1" fill="none" fill-rule="evenodd" opacity="0.400000006">
        <g transform="translate(-135.000000, -2179.000000)">
            <g transform="translate(135.000000, 2179.000000)">
                <polyline fill="#536579" points="50.6285714 22.3967347 34.1861224 25.4065306 31.9216327 13.0391837 48.364898 10.0285714 50.6285714 22.3967347"></polyline>
                <path d="M28.1379592,16.0481633 C36.4155102,14.5330612 44.6930612,13.0179592 52.9706122,11.5028571 C60.2,10.1795918 58.1477551,-1.03102041 50.9183673,0.292244898 C42.6408163,1.80734694 34.3632653,3.32244898 26.0857143,4.83755102 C18.8563265,6.16081633 20.9077551,17.3714286 28.1379592,16.0481633" fill="#536579"></path>
                <path d="M43.52,29.9812245 C21.8693878,33.9428571 7.48081633,54.7812245 11.4432653,76.4318367 C15.4065306,98.0816327 36.2440816,112.470204 57.8938776,108.508571 C79.5444898,104.545306 93.9346939,83.7069388 89.9706122,62.0579592 C86.0081633,40.4065306 65.1697959,26.0171429 43.52,29.9812245 L43.52,29.9812245 Z M59.7412245,118.599184 C32.5273469,123.581224 6.33469388,105.493061 1.35346939,78.2791837 C-3.62857143,51.0644898 14.4587755,24.8718367 41.6726531,19.8897959 C68.8865306,14.9093878 95.08,32.9967347 100.060408,60.2106122 C105.042449,87.4244898 86.955102,113.617959 59.7412245,118.599184 L59.7412245,118.599184 Z" fill="#298DCF"></path>
                <path d="M47.8,35.52 C48.12,37.2644898 46.9640816,38.9395918 45.2179592,39.2604082 C43.4726531,39.5779592 41.7983673,38.4220408 41.4791837,36.6767347 C41.16,34.9314286 42.315102,33.2571429 44.0612245,32.9371429 C45.8065306,32.6179592 47.4808163,33.7746939 47.8,35.52" fill="#72AADE"></path>
                <path d="M25.6212245,48.2073469 C27.0816327,49.2146939 27.4481633,51.2155102 26.4391837,52.6759184 C25.4302041,54.1355102 23.4293878,54.5036735 21.9697959,53.4946939 C20.5085714,52.4873469 20.1428571,50.484898 21.1502041,49.0253061 C22.1591837,47.564898 24.1608163,47.1983673 25.6212245,48.2073469" fill="#72AADE"></path>
                <path d="M17.6791837,72.3738776 C19.4236735,72.0555102 21.0987755,73.2106122 21.4179592,74.957551 C21.7371429,76.7012245 20.5804082,78.3763265 18.8367347,78.6963265 C17.0897959,79.0146939 15.4163265,77.8587755 15.0963265,76.1142857 C14.7771429,74.3673469 15.9338776,72.6946939 17.6791837,72.3738776" fill="#72AADE"></path>
                <path d="M29.1518367,95.08 C30.1608163,93.6195918 32.1608163,93.2538776 33.6220408,94.2620408 C35.0816327,95.2702041 35.4473469,97.2702041 34.44,98.7322449 C33.4318367,100.191837 31.4302041,100.558367 29.9706122,99.5493878 C28.5102041,98.5412245 28.1444898,96.5395918 29.1518367,95.08" fill="#72AADE"></path>
                <path d="M53.3208163,103.022041 C53,101.275918 54.1567347,99.602449 55.9020408,99.2832653 C57.6481633,98.9640816 59.3208163,100.119184 59.6408163,101.86449 C59.96,103.611429 58.804898,105.285714 57.0604082,105.604082 C55.3134694,105.924898 53.6391837,104.767347 53.3208163,103.022041" fill="#72AADE"></path>
                <path d="M76.0244898,91.5477551 C74.564898,90.5404082 74.1983673,88.5387755 75.2073469,87.0783673 C76.2163265,85.6187755 78.2163265,85.2514286 79.6759184,86.2612245 C81.1379592,87.2693878 81.5036735,89.2693878 80.4955102,90.7297959 C79.4865306,92.1902041 77.484898,92.557551 76.0244898,91.5477551" fill="#72AADE"></path>
                <path d="M83.9665306,67.3804082 C82.2220408,67.7012245 80.5469388,66.5453061 80.2285714,64.797551 C79.9093878,63.0514286 81.0644898,61.3795918 82.8089796,61.0595918 C84.5559184,60.7395918 86.2293878,61.8955102 86.5485714,63.6408163 C86.8685714,65.3869388 85.7118367,67.0612245 83.9665306,67.3804082" fill="#72AADE"></path>
                <path d="M72.4938776,44.6759184 C71.484898,46.1355102 69.484898,46.5028571 68.0244898,45.4930612 C66.564898,44.4840816 66.1983673,42.4840816 67.2065306,41.0236735 C68.2146939,39.5640816 70.2146939,39.1967347 71.675102,40.204898 C73.1355102,41.2130612 73.5020408,43.2155102 72.4938776,44.6759184" fill="#72AADE"></path>
                <path d="M55.315102,68.6130612 C55.8171429,71.3608163 53.997551,73.995102 51.2506122,74.4971429 C48.5036735,74.9991837 45.8685714,73.1804082 45.3657143,70.4334694 C44.8628571,67.6865306 46.6832653,65.0514286 49.4293878,64.5485714 C52.1771429,64.044898 54.8122449,65.8653061 55.315102,68.6130612" fill="#72AADE"></path>
                <path d="M35.517551,61.6938776 C40.1885714,64.6946939 44.8604082,67.6955102 49.5314286,70.6946939 C50.1942857,71.1216327 51.0465306,70.9771429 51.5126531,70.3322449 C57.0163265,62.7126531 62.52,55.0938776 68.0244898,47.4742857 C69.1020408,45.9820408 66.7559184,44.3681633 65.68,45.8563265 C60.1763265,53.475102 54.6726531,61.0946939 49.1681633,68.7134694 C49.8293878,68.5926531 50.4889796,68.4710204 51.1502041,68.3502041 C46.4791837,65.3502041 41.8073469,62.3493878 37.1363265,59.3493878 C35.5926531,58.357551 33.9689796,60.6995918 35.517551,61.6938776" fill="#72AADE"></path>
            </g>
        </g>
    </g>
</svg>