<svg width="218px" height="340px" viewBox="0 0 218 340" version="1.1" xmlns="http://www.w3.org/2000/svg" xmlns:xlink="http://www.w3.org/1999/xlink">
    <defs>
        <rect id="path-1" x="0" y="0" width="267" height="356"></rect>
        <polygon id="path-3" points="0.6575 1.6848 0.1915 1.5848 0.6575 0.1936"></polygon>
    </defs>
    <g stroke="none" stroke-width="1" fill="none" fill-rule="evenodd">
        <g transform="translate(-317.000000, -819.000000)">
            <g transform="translate(0.000000, 75.000000)">
                <g transform="translate(278.000000, 728.000000)">
                    <mask id="mask-2" fill="white">
                        <use xlink:href="#path-1"></use>
                    </mask>
                    <g></g>
                    <g mask="url(#mask-2)">
                        <g transform="translate(39.000000, 16.000000)">
                            <polyline fill="#E6E7E3" points="148.696298 79 173.303702 79 175 90 147 90 148.696298 79"></polyline>
                            <polyline fill="#F2CAB2" points="175 81.691928 171.675436 80.2107945 171.675436 70 150.338406 70 150.338406 80.2107945 147 81.602611 147.888858 110.56042 150.338406 110.56042 150.338406 115 171.675436 115 171.675436 110.56042 174.110648 110.56042 175 81.691928"></polyline>
                            <path d="M172,79 L151,75.4263225 L151,71.183847 C154.561549,73.5989505 158.339612,75.0624887 161.364982,75.0629712 L161.368875,75.0629712 L161.381525,75.0629712 L161.391256,75.0629712 L161.406339,75.0629712 C161.409258,75.0629712 161.411691,75.0624887 161.415097,75.0624887 L161.43164,75.0624887 L161.438938,75.0624887 L161.45694,75.0624887 L161.462779,75.0624887 C161.469104,75.0624887 161.475429,75.0620062 161.482241,75.0620062 L161.48662,75.0620062 L161.507055,75.0620062 C161.508028,75.0620062 161.509974,75.0615236 161.510947,75.0615236 L161.530409,75.0615236 L161.535275,75.0615236 C161.542087,75.0610411 161.548412,75.0610411 161.55571,75.0610411 L161.559116,75.0610411 C161.566414,75.0605585 161.573226,75.0605585 161.580038,75.0605585 L161.583443,75.0605585 C161.591228,75.060076 161.59804,75.060076 161.605825,75.0595935 L161.607771,75.0595935 C164.668173,74.9828699 168.453534,73.4599795 172,71 L172,79" fill="#E59E7F"></path>
                            <polyline fill="#323138" points="165.438988 186 129 186 131.226204 361 154.298707 361 158.506954 211.112581 164.48671 211.112581 168.701293 361 191.773796 361 194 186 165.438988 186"></polyline>
                            <polyline fill="#1A1A18" points="193.962958 192 129 192 129 186 194 186 193.962958 192"></polyline>
                            <path d="M158.752151,185.994489 C157.701929,185.994489 156.847286,186.916721 156.847286,188.051144 L156.847286,190.948342 C156.847286,192.083279 157.701929,193.005511 158.752151,193.005511 L164.247849,193.005511 C165.298071,193.005511 166.152714,192.083279 166.152714,190.948342 L166.152714,188.051144 C166.152714,186.916721 165.298071,185.994489 164.247849,185.994489 L158.752151,185.994489 L158.752151,185.994489 Z M164.247849,195 L158.752151,195 C156.683114,195 155,193.182765 155,190.948342 L155,188.051144 C155,185.817235 156.683114,184 158.752151,184 L164.247849,184 C166.316886,184 168,185.817235 168,188.051144 L168,190.948342 C168,193.182765 166.316886,195 164.247849,195 L164.247849,195 Z" fill="#3C3A40"></path>
                            <path d="M175.61213,82 L174.833653,84.921005 C173.488172,88.776557 170.037165,95.0822033 161.843024,95.0822033 C152.598788,95.0822033 149.072116,87.0544105 147.977882,83.5761691 L147.557844,82 C130.531259,88.3963366 135.755545,141.712074 135.755545,141.712074 L135.648353,185.995635 L161.6267,186 L189,185.995635 L188.287002,141.712074 C188.287002,141.712074 192.638715,88.3963366 175.61213,82" fill="#A5D5E2"></path>
                            <polyline fill="#323138" points="166 93.1351434 164.005872 97 157.937332 97 156 93.1351434 161 89 166 93.1351434"></polyline>
                            <polyline fill="#85C6DA" points="161 89.4490478 154.357965 96 143 83.3064166 150.088407 80 152.754629 82.3111632 161 89.4490478"></polyline>
                            <polyline fill="#85C6DA" points="171.311654 80 161 89.4445519 167.274254 96 178 83.2997568 171.311654 80"></polyline>
                            <polyline fill="#323138" points="164.51903 97 167 176.916876 161.5 183 156 176.916876 158.423925 97 164.51903 97"></polyline>
                            <path d="M146,137.976027 L146,251 L119.29279,251 C119.97218,240.36624 121.632858,194.654212 122.777296,162.018058 C122.872028,159.374948 122.958148,156.819439 123.044267,154.368564 C123.586344,138.833541 123.956181,127.788544 123.956181,127.788544 C123.887285,127.876145 110.688935,113.085242 113.355781,97.2265825 C114.999235,87.4240564 129.127202,87.4152964 145.922492,81 L146,137.976027" fill="#FFFFFF"></path>
                            <path d="M175,137.975209 L175.072728,81 C191.869182,87.4185561 205.99717,87.421476 207.645044,97.2301042 C210.308725,113.082074 197.108983,127.880911 197.041039,127.792339 C197.041039,127.792339 200.617654,234.034066 201.707146,250.996107 L175,251 L175,137.975209" fill="#FFFFFF"></path>
                            <path d="M180.629281,199.66134 L188.377664,183 L200,188.52986 L192.251617,205.190718 C190.72032,208.484457 186.877317,209.915324 183.667592,208.388616 C180.458344,206.861427 179.097508,202.954597 180.629281,199.66134" fill="#F2CAB2"></path>
                            <path d="M178.205833,195.009332 C180.858854,189.424916 186.16069,187.118319 186.449967,187.052615 C187.587443,186.795349 188.707628,187.506531 188.952508,188.639701 C189.196453,189.771946 188.476768,190.896788 187.341161,191.15683 C187.318262,191.162382 187.082261,191.286851 186.714474,191.527921 C186.34622,191.768992 185.846179,192.127127 185.294732,192.599089 C184.190903,193.542549 182.880982,194.943165 182.008014,196.780113 C181.507038,197.835086 180.249925,198.293167 179.199839,197.804085 C178.149753,197.315003 177.704857,196.063842 178.205833,195.009332" fill="#F2CAB2"></path>
                            <path d="M184.767307,187 L183,186.143571 L197.74028,154 C197.824061,156.405454 197.907841,158.913603 198,161.507729 L188.374065,182.500999 L187.996121,182.318536 L186.246501,186.134973 C185.884848,186.31648 185.370528,186.602116 184.767307,187" fill="#E6E7E3"></path>
                            <path d="M186,187 L187.644717,183 L188,183.191239 L186.541238,186.738173 C186.532925,186.740175 186.525049,186.742178 186.516736,186.74418 C186.470357,186.756195 186.286152,186.8398 186,187" fill="#D7B5A0"></path>
                            <path d="M186.228992,189 L185,188.290929 C185.587089,187.830199 186.087656,187.499447 186.439638,187.28927 C186.7359,187.112279 186.926614,187.019912 186.974632,187.006637 C186.983239,187.004425 186.991393,187.002212 187,187 L186.228992,189" fill="#D7B5A0"></path>
                            <path d="M199.003717,194 L185,187.347752 L202.199376,150.425097 L189.479373,103.320094 L208.180001,97 L217.870726,150.050941 C218.165239,151.659569 217.953916,153.320338 217.263531,154.800546 L199.003717,194" fill="#FFFFFF"></path>
                            <path d="M141.371022,199.66134 L133.622708,183 L122,188.52986 L129.748313,205.190718 C131.279597,208.484457 135.122566,209.915324 138.332262,208.388616 C141.541482,206.861427 142.902305,202.954597 141.371022,199.66134" fill="#F2CAB2"></path>
                            <path d="M143.793875,195.009332 C141.141312,189.424916 135.838991,187.118319 135.549714,187.052615 C134.412234,186.795349 133.292045,187.506531 133.047632,188.639701 C132.803219,189.771946 133.523374,190.896788 134.658517,191.15683 C134.681884,191.162382 134.917418,191.286851 135.285206,191.527921 C135.653462,191.768992 136.153504,192.127127 136.70542,192.599089 C137.808785,193.542549 139.119177,194.943165 139.991682,196.780113 C140.492659,197.835086 141.749775,198.293167 142.800332,197.804085 C143.850421,197.315003 144.295319,196.063842 143.793875,195.009332" fill="#F2CAB2"></path>
                            <path d="M136.233624,187 C135.630869,186.602588 135.116548,186.316948 134.754895,186.135438 L133.005741,182.318946 L132.6264,182.501889 L123,161.507838 C123.092159,158.913674 123.175939,156.405489 123.25972,154 L138,186.144036 L136.233624,187" fill="#E6E7E3"></path>
                            <path d="M136,187 C135.713973,186.8398 135.529849,186.756195 135.48349,186.74418 C135.474743,186.741677 135.465996,186.739675 135.457686,186.737672 L134,183.19174 L134.35644,183 L136,187" fill="#D7B5A0"></path>
                            <path d="M135.770659,189 L135,187 C135.008603,187.002212 135.017659,187.004424 135.026715,187.007188 C135.074711,187.020459 135.265338,187.112801 135.561467,187.289743 C135.91329,187.499862 136.413629,187.830523 137,188.290572 L135.770659,189" fill="#D7B5A0"></path>
                            <path d="M123.996283,194 L105.736469,154.800546 C105.046084,153.320338 104.834761,151.659569 105.129274,150.050941 L114.819999,97 L133.521105,103.320094 L120.800624,150.425097 L138,187.347752 L123.996283,194" fill="#FFFFFF"></path>
                            <polyline fill="#FFFFFF" points="146 211.809772 129.913642 217 124 195.190228 143.601706 190 146 211.809772"></polyline>
                            <polyline fill="#E6E7E3" points="143.393 192 143 190 143.93 191.920398 143.393 192"></polyline>
                            <polyline fill="#E6E7E3" points="124.43669 196 124 194.534383 142.815661 190 143 191.526368 124.43669 196"></polyline>
                            <polyline fill="#E6E7E3" points="139 83.5030514 139.348384 93.4433134 144.452233 97.5270055 140.48026 102.807559 146.80816 138 148 79 139 83.5030514"></polyline>
                            <polyline fill="#FFFFFF" points="176 211.809772 192.086226 217 198 195.190228 178.398347 190 176 211.809772"></polyline>
                            <polyline fill="#E6E7E3" points="178.538 192 178 191.920398 178.931 190 178.538 192"></polyline>
                            <polyline fill="#E6E7E3" points="196.563299 196 178 191.526368 178.184343 190 197 194.534383 196.563299 196"></polyline>
                            <polyline fill="#E6E7E3" points="182 83.5030514 181.651635 93.4433134 176.548067 97.5270055 180.519822 102.807559 174.19227 138 173 79 182 83.5030514"></polyline>
                            <path d="M181.9615,99.0346109 C181.927,98.2193053 181.049,80.5134047 172,76 L172,78.0551049 C179.3595,82.8146864 180.1575,98.9286112 180.165,99.1099003 L180.204,100 L182,99.9242152 L181.9615,99.0346109" fill="#9FA2A1"></path>
                            <path d="M151,78.0058654 L151,76 C135.951806,83.23114 142.272261,120.511223 142.557983,122.145507 L142.706945,123 L144.510756,122.717097 L144.361285,121.86164 C144.295193,121.482829 138.224364,85.7271459 151,78.0058654" fill="#9FA2A1"></path>
                            <path d="M173.736036,107.870688 C173.864148,105.429179 174.779027,99.7503326 180.499762,99.7503326 C186.220973,99.7503326 187.135852,105.429179 187.263964,107.870688 C187.56686,113.660512 184.978432,120.24665 180.499762,123.771165 C176.021568,120.24665 173.43314,113.660512 173.736036,107.870688 L173.736036,107.870688 Z M186.379088,126.254048 C184.788408,126.079794 183.314885,125.556543 181.974713,124.774832 C186.628644,120.797644 189.293748,113.881007 188.974184,107.77626 C188.657952,101.746471 185.411345,98 180.499762,98 C175.588655,98 172.341571,101.746471 172.025816,107.77626 C171.706252,113.881007 174.371356,120.797644 179.025287,124.774832 C177.685115,125.556543 176.211592,126.079794 174.620912,126.254048 C174.149899,126.305643 173.809855,126.737385 173.860814,127.217802 C173.907487,127.667067 174.278963,128 174.711399,128 L174.803316,127.994646 C176.892156,127.765389 178.801449,127.011909 180.499762,125.887043 C182.198551,127.011909 184.107844,127.765389 186.196684,127.994646 L186.288601,128 C186.721037,128 187.092513,127.66658 187.139186,127.217802 C187.190145,126.737385 186.850101,126.305643 186.379088,126.254048 L186.379088,126.254048 Z" fill="#9FA2A1"></path>
                            <path d="M173.024624,128 C172.456037,128 171.883122,127.98052 171.308583,127.940477 C170.506826,127.884922 169.924173,127.406574 170.008027,126.871949 C170.091341,126.336963 170.809784,125.954573 171.610459,126.004356 C172.55017,126.069651 173.486095,126.070372 174.385772,126.00652 C175.169676,125.947358 175.905972,126.335881 175.99145,126.870506 C176.078009,127.40477 175.49752,127.884201 174.695763,127.941198 C174.146651,127.98052 173.587802,128 173.024624,128" fill="#3B3940"></path>
                            <path d="M187.975376,128 C187.412198,128 186.853349,127.980521 186.304237,127.941202 C185.50248,127.884207 184.921991,127.404804 185.00855,126.87057 C185.094028,126.335975 185.823832,125.947114 186.614228,126.006633 C187.514987,126.070482 188.448748,126.06976 189.389541,126.004469 C190.19238,125.953967 190.9092,126.337057 190.991973,126.872013 C191.075827,127.406607 190.493174,127.884929 189.691417,127.94048 C189.116337,127.980521 188.543963,128 187.975376,128" fill="#3B3940"></path>
                            <path d="M149,123.5 C149,126.537998 146.537488,129 143.5,129 C140.462512,129 138,126.537998 138,123.5 C138,120.462512 140.462512,118 143.5,118 C146.537488,118 149,120.462512 149,123.5" fill="#E6E7E3"></path>
                            <path d="M143,116 C139.140196,116 136,119.139819 136,122.999757 C136,126.859695 139.140196,130 143,130 C146.859804,130 150,126.859695 150,122.999757 C150,119.139819 146.859804,116 143,116 L143,116 Z M143,117.749696 C145.899354,117.749696 148.249878,120.100302 148.249878,122.999757 C148.249878,125.899211 145.899354,128.249818 143,128.249818 C140.100646,128.249818 137.750122,125.899211 137.750122,122.999757 C137.750122,120.100302 140.100646,117.749696 143,117.749696 L143,117.749696 Z" fill="#9FA2A1"></path>
                            <path d="M146,122.5 C146,124.433325 144.43287,126 142.5,126 C140.56713,126 139,124.433325 139,122.5 C139,120.56713 140.56713,119 142.5,119 C144.43287,119 146,120.56713 146,122.5" fill="#9FA2A1"></path>
                            <path d="M183.699576,41.3496762 L184.403711,32.0395317 C184.403711,19.8650668 172.962593,10 161.001928,10 C149.032588,10 137.600145,19.8650668 137.600145,32.0395317 L138.303798,41.3403622 C137.634363,41.5045839 137.029992,41.8168502 136.525386,42.2570624 C135.58943,43.0678763 135,44.2669398 135,45.6155186 L135,50.2 C135,52.6236181 136.918661,54.5898665 139.306746,54.6050631 C139.306746,66.1015621 152.887742,77 161.001928,77 C169.116114,77 182.696628,66.1030327 182.696628,54.6065337 C185.076038,54.5893763 187,52.6255789 187,50.2014706 L187,45.6174794 C187,43.5473057 185.591247,41.8227328 183.699576,41.3496762" fill="#F2CAB2"></path>
                            <path d="M161.008,75.007 L161,75.007 L161.002,75.007 L161.034,75.007 L161.008,75.007 M161.054,75.007 L161.085,75.007 L161.054,75.007 M161.103,75.006 L161.137,75.006 L161.103,75.006 M161.152,75.006 L161.189,75.006 L161.152,75.006 M161.201,75.006 C161.214,75.006 161.227,75.005 161.241,75.005 C161.227,75.005 161.214,75.006 161.201,75.006 M161.25,75.005 L161.292,75.005 L161.25,75.005 M161.3,75.004 L161.34,75.004 L161.3,75.004 M161.35,75.004 C161.364,75.003 161.377,75.003 161.392,75.003 C161.377,75.003 161.364,75.003 161.35,75.004 M161.399,75.003 C161.414,75.002 161.428,75.002 161.442,75.002 C161.428,75.002 161.414,75.002 161.399,75.003 M161.449,75.002 C161.465,75.001 161.479,75.001 161.495,75 C161.479,75.001 161.465,75.001 161.449,75.002" fill="#DB8262"></path>
                            <path d="M172,71 L172,71 C177.276619,67.4698001 182.018573,61.9229371 183,56 C182.018573,61.9229371 177.276619,67.4698001 172,71" fill="#A7B2A0"></path>
                            <path d="M161,75 C164.239384,74.9244027 168.246641,73.4238678 172,71 C168.246126,73.4238678 164.239384,74.9244027 161,75" fill="#DB8262"></path>
                            <path d="M182,56 C182.001,55.9957547 182.003,55.9910377 182.004,55.9867925 C182.003,55.9910377 182.001,55.9957547 182,56 M182.021,55.9363208 C182.024,55.9283019 182.026,55.9198113 182.029,55.9117925 C182.026,55.9198113 182.024,55.9283019 182.021,55.9363208 M182.032,55.9042453 C182.051,55.8433962 182.07,55.7825472 182.088,55.7216981 C182.07,55.7825472 182.051,55.8433962 182.032,55.9042453 M182.091,55.7113208 C182.097,55.6915094 182.103,55.6707547 182.108,55.6509434 C182.103,55.6707547 182.097,55.6915094 182.091,55.7113208 M182.109,55.6471698 C182.114,55.6292453 182.12,55.6108491 182.124,55.5929245 C182.12,55.6108491 182.114,55.6292453 182.109,55.6471698 M182.127,55.5830189 C182.129,55.5764151 182.131,55.5693396 182.133,55.5627358 C182.131,55.5693396 182.129,55.5764151 182.127,55.5830189 M182.136,55.5509434 C182.138,55.5433962 182.14,55.5363208 182.142,55.5287736 C182.14,55.5363208 182.138,55.5433962 182.136,55.5509434 M182.145,55.5188679 C182.15,55.4995283 182.155,55.4806604 182.16,55.4613208 C182.155,55.4806604 182.15,55.4995283 182.145,55.5188679 M182.161,55.4542453 C182.163,55.45 182.164,55.445283 182.165,55.440566 C182.164,55.445283 182.163,55.45 182.161,55.4542453 M182.17,55.4221698 C182.171,55.4146226 182.173,55.4075472 182.175,55.4 C182.173,55.4075472 182.171,55.4150943 182.17,55.4221698 M182.178,55.3900943 C182.179,55.3839623 182.18,55.3792453 182.182,55.3731132 C182.18,55.3783019 182.179,55.3849057 182.178,55.3900943 M182.185,55.3580189 C182.186,55.3566038 182.186,55.3556604 182.186,55.3542453 C182.186,55.3556604 182.186,55.3566038 182.185,55.3580189 M182.201,55.2933962 C182.202,55.2867925 182.204,55.279717 182.205,55.2726415 C182.204,55.279717 182.202,55.2867925 182.201,55.2933962 M182.208,55.2613208 C182.209,55.2561321 182.211,55.25 182.212,55.2443396 C182.211,55.25 182.209,55.2561321 182.208,55.2613208 M182.215,55.2292453 C182.216,55.225 182.217,55.2207547 182.218,55.2165094 C182.217,55.2207547 182.216,55.225 182.215,55.2292453 M182.222,55.1971698 C182.223,55.1938679 182.224,55.1900943 182.225,55.1867925 C182.224,55.1900943 182.223,55.1938679 182.222,55.1971698 M182.236,55.1325472 C182.237,55.1311321 182.237,55.1306604 182.237,55.1292453 C182.237,55.1306604 182.237,55.1311321 182.236,55.1325472 M182.243,55.1004717 C182.253,55.0495283 182.263,54.9985849 182.272,54.9476415 C182.263,54.9985849 182.253,55.0495283 182.243,55.1004717 M182.274,54.9391509 C182.275,54.9353774 182.275,54.9311321 182.276,54.9273585 C182.275,54.9311321 182.275,54.9353774 182.274,54.9391509 M182.28,54.9070755 C182.287,54.8646226 182.294,54.8226415 182.301,54.7801887 C182.294,54.8226415 182.287,54.8646226 182.28,54.9070755 M182.301,54.7778302 C182.304,54.7575472 182.307,54.7382075 182.31,54.7179245 C182.307,54.7382075 182.304,54.7575472 182.301,54.7778302 M182.311,54.7132075 C182.311,54.7113208 182.311,54.7099057 182.312,54.7075472 C182.311,54.7099057 182.311,54.7113208 182.311,54.7132075 M182.32,54.6485849 C182.325,54.6084906 182.331,54.5669811 182.336,54.5268868 C182.331,54.5669811 182.325,54.6084906 182.32,54.6485849 M182.336,54.5193396 C182.337,54.515566 182.337,54.5108491 182.338,54.5070755 C182.337,54.5108491 182.337,54.515566 182.336,54.5193396 M182.356,54.3254717 C182.357,54.3240566 182.357,54.3231132 182.357,54.3221698 C182.357,54.3231132 182.357,54.3240566 182.356,54.3254717 M182.362,54.2608491 L182.362,54.2566038 L182.362,54.2608491 M182.367,54.1962264 C182.37,54.1471698 182.373,54.0971698 182.375,54.0481132 C182.373,54.0971698 182.37,54.1471698 182.367,54.1962264 M182.377,54.0018868 L182.377,54 L182.377,54.0018868" fill="#A7B2A0"></path>
                            <path d="M161.337205,77 L161.336217,77 L161.333251,76.9995098 L161.333251,58.0458753 L156,58.0458753 C156,58.0458753 158.091287,48.1347284 161.333251,41.2962429 L161.333251,10 L161.337205,10 C173.603682,10 185.337329,19.8650668 185.337329,32.0395317 L184.61519,41.3496762 C186.555228,41.8227328 188,43.5473057 188,45.6174794 L188,50.2014706 C188,52.6255789 186.026845,54.5893763 183.586599,54.6065337 C183.586599,54.6957527 183.586105,54.7844814 183.584128,54.8737004 L183.584128,54.8756612 C183.584128,54.8918383 183.583633,54.9075252 183.583139,54.9237022 C183.58215,54.9746845 183.580668,55.0266472 183.579185,55.0776294 C183.578196,55.0987086 183.577702,55.1192976 183.576713,55.1403768 L183.576713,55.1447887 C183.575725,55.1658679 183.575231,55.1874374 183.574242,55.2085166 C183.574242,55.209497 183.574242,55.2104774 183.573748,55.2119481 C183.571276,55.2751857 183.568311,55.3374428 183.564851,55.4006804 C183.564356,55.4046022 183.564356,55.4095043 183.563862,55.413426 L183.563862,55.4212694 C183.561391,55.4629376 183.558425,55.5060765 183.555954,55.5477446 C183.554471,55.5683336 183.552988,55.5889226 183.552,55.6090214 C183.551505,55.6114725 183.551505,55.6129431 183.551505,55.614904 C183.551505,55.6163746 183.551011,55.6183355 183.551011,55.6198061 C183.549528,55.6408853 183.548045,55.6609841 183.546562,55.6820633 L183.546562,55.6845144 C183.543103,55.7286336 183.539643,55.7722627 183.536183,55.8163819 C183.535194,55.8232449 183.5347,55.8305981 183.534206,55.8374611 C183.533711,55.8413828 183.533711,55.8457948 183.533217,55.8497165 C183.532723,55.8526578 183.532723,55.855599 183.532228,55.8585403 C183.52778,55.9114834 183.522837,55.9644266 183.517894,56.0173697 C183.516906,56.027174 183.515917,56.0374684 183.514929,56.0472727 C183.514929,56.0487434 183.514929,56.0492336 183.514434,56.0507042 C183.512457,56.0693324 183.510974,56.0884507 183.508997,56.1070788 C183.508503,56.1105103 183.508009,56.114432 183.507515,56.1178635 C183.50702,56.1247265 183.506526,56.1310993 183.505537,56.1379623 C183.505043,56.1423742 183.504549,56.1467862 183.504055,56.1511981 C183.50356,56.1565905 183.503066,56.1614926 183.502572,56.1668849 C183.502078,56.1727675 183.501089,56.1791403 183.500595,56.1845327 C183.5001,56.1889446 183.499606,56.1923761 183.499112,56.1962978 C183.498618,56.203651 183.497629,56.2110042 183.497135,56.2178672 C183.494663,56.2389464 183.492192,56.2600256 183.489721,56.2811048 C183.489721,56.2825755 183.489721,56.2835559 183.489226,56.2850265 C183.488732,56.2904189 183.488238,56.2948308 183.487743,56.3007134 C183.486755,56.3070862 183.486261,56.3119883 183.485766,56.3183611 C183.485272,56.3217926 183.484778,56.3252241 183.484284,56.3286556 C183.483295,56.336499 183.482306,56.3438522 183.481812,56.3516956 C183.480824,56.3580684 183.479835,56.3644412 183.479341,56.370814 C183.478846,56.3757161 183.478352,56.3806183 183.477364,56.3850302 C183.477364,56.3874813 183.476869,56.3904225 183.476869,56.3923834 C183.474398,56.4124822 183.471927,56.4320907 183.469455,56.4521895 C183.468961,56.455621 183.468467,56.4590525 183.467972,56.462484 C183.466984,56.4703274 183.465995,56.4776806 183.465007,56.4855241 C183.464512,56.489936 183.464018,56.4938577 183.463524,56.4977794 C183.462535,56.5046424 183.461547,56.5119956 183.460558,56.5188586 C183.460064,56.5222901 183.45957,56.5257216 183.459075,56.5291531 C183.457098,56.5477812 183.454133,56.5668996 183.451661,56.5855277 C183.451661,56.5869984 183.451661,56.5879788 183.451167,56.5894494 C183.448696,56.6100384 183.44573,56.6316078 183.442764,56.6521968 C183.44227,56.6556283 183.441776,56.65955 183.441281,56.6629815 C183.432384,56.7262191 183.422993,56.7894567 183.413602,56.8526943 C183.413108,56.8551454 183.412613,56.8575965 183.412119,56.8605378 C183.410636,56.8688714 183.409648,56.8776953 183.408165,56.8860289 C183.405693,56.9031864 183.402728,56.9208341 183.399762,56.9384818 C183.399268,56.9428937 183.398279,56.9477959 183.397785,56.9522078 C183.397291,56.9536784 183.397291,56.9551491 183.397291,56.9566197 C182.392919,63.2411633 177.540106,69.1266728 172.140128,72.872398 C168.537835,75.3715091 164.691865,76.9186245 161.582861,76.9965685 L161.580884,76.9965685 C161.572975,76.9970587 161.566056,76.9970587 161.558147,76.9975489 L161.554687,76.9975489 C161.547767,76.9975489 161.540847,76.9975489 161.533433,76.9980391 L161.529973,76.9980391 C161.522559,76.9980391 161.516134,76.9980391 161.509214,76.9985294 L161.504271,76.9985294 L161.4845,76.9985294 C161.483511,76.9985294 161.481534,76.9990196 161.480546,76.9990196 L161.459786,76.9990196 L161.455337,76.9990196 C161.448418,76.9990196 161.441992,76.9995098 161.435566,76.9995098 L161.429635,76.9995098 L161.411347,76.9995098 L161.403933,76.9995098 L161.387127,76.9995098 C161.383667,76.9995098 161.381196,77 161.37823,77 L161.362908,77 L161.353022,77 L161.337205,77 M171.557869,40.4766051 C171.51635,40.4766051 171.47483,40.4775855 171.433311,40.4790562 C169.495745,40.5462155 167.979796,42.1580391 168.047512,44.0796781 C168.113746,45.960139 169.671213,47.4400951 171.553421,47.4400951 C171.59494,47.4400951 171.636459,47.4391147 171.677978,47.437644 C173.615545,47.3709749 175.131493,45.7586611 175.063777,43.8370221 C174.998038,41.9565612 173.440077,40.4766051 171.557869,40.4766051" fill="#E9A88A"></path>
                            <path d="M149.99831,46 C148.389844,46 147.058466,44.7248152 147.001866,43.1045407 C146.943998,41.4487856 148.239472,40.0599789 149.895247,40.0021119 C149.93115,40.0008448 149.966631,40 150.002112,40 C151.610579,40 152.941534,41.2751848 152.998134,42.8954593 C153.056002,44.5512144 151.760528,45.9404435 150.104753,45.9978881 C150.069272,45.9991552 150.033791,46 149.99831,46" fill="#E7A080"></path>
                            <path d="M152.998134,41.8952469 C153.056002,43.5510213 151.760528,44.9402668 150.104753,44.9981344 C148.448979,45.056002 147.059733,43.7605275 147.001866,42.1047531 C146.943998,40.4489787 148.239472,39.0597332 149.895247,39.0018656 C151.551444,38.943998 152.940267,40.2394725 152.998134,41.8952469" fill="#2D2119"></path>
                            <path d="M153.999387,41.9650734 C154.018536,42.5171389 153.586566,42.9801979 153.034637,42.9993512 C152.482707,43.0190678 152.019762,42.5869921 152.000614,42.0349266 C151.981465,41.4828611 152.412871,41.0198021 152.964801,41.0006488 C153.51673,40.9809322 153.980239,41.4130079 153.999387,41.9650734" fill="#FFFFFF"></path>
                            <path d="M170.998099,46 C169.389519,46 168.05847,44.7248152 168.001866,43.1045407 C167.943994,41.4487856 169.23956,40.0599789 170.895451,40.0021119 C170.930934,40.0008448 170.966418,40 171.001901,40 C172.610481,40 173.941952,41.2751848 173.998134,42.8954593 C174.056006,44.5512144 172.76044,45.9404435 171.104549,45.9978881 C171.069066,45.9991552 171.033582,46 170.998099,46" fill="#DC8363"></path>
                            <path d="M173.998134,41.8952469 C174.056006,43.5510213 172.76044,44.9402668 171.104549,44.9981344 C169.448658,45.056002 168.059315,43.7605275 168.001866,42.1047531 C167.943994,40.4489787 169.23956,39.0597332 170.895451,39.0018656 C172.551342,38.943998 173.940685,40.2394725 173.998134,41.8952469" fill="#2D2119"></path>
                            <path d="M172.999386,41.9650734 C173.018535,42.5171389 172.587129,42.9801979 172.035199,42.9993512 C171.48327,43.0190678 171.019761,42.5869921 171.000613,42.0349266 C170.981464,41.4828611 171.413434,41.0198021 171.965363,41.0006488 C172.517293,40.9809322 172.980238,41.4130079 172.999386,41.9650734" fill="#FFFFFF"></path>
                            <path d="M168,61 C168,64.8659113 164.641902,68 160.500232,68 C156.358098,68 153,64.8659113 153,61 L168,61" fill="#E05844"></path>
                            <path d="M167.133494,63 L155.866506,63 C155.387952,63 155,62.7012048 155,62.3330862 L155,61 L168,61 L168,62.3330862 C168,62.7012048 167.612048,63 167.133494,63" fill="#FFFFFF"></path>
                            <path d="M186.436985,40.6466129 C185.712605,43.7075079 184.750039,45.0007337 183.575316,48 L183.504596,39.4854488 L178.559168,24.5497677 C178.559168,24.5497677 170.71622,26.2298851 161.496213,26.6167767 C152.284555,26.2298851 144.441606,24.5497677 144.441606,24.5497677 L139.416619,39.4854488 L139.416619,48 C138.842517,46.5487894 136.934574,42.2210809 136.56379,40.6466129 C135.344867,35.4918073 134.806124,30.355099 135.062481,25.570066 C135.15972,23.8547322 135.344867,22.1834189 135.654263,20.5737344 C136.069247,18.3223282 136.696388,16.1760822 137.544035,14.1790169 C137.544035,14.1790169 142.940298,0 161.496213,0.0176082172 C161.884677,0.00880410858 162.255461,0 162.626737,0 C167.634044,0 171.167054,0.941061384 174.558135,2.61237466 C174.558135,2.61237466 180.113516,5.2951822 184.70584,3.09611152 C184.856118,3.02567865 185.032916,3.14013206 185.015236,3.30741012 C184.935677,3.92320861 184.67048,5.18072878 183.769793,6.35069699 C184.962196,6.40352164 186.304387,6.31548056 187.867574,5.98141355 L187.920613,5.97260944 L187.920613,6.0342382 C188.035532,9.13034972 186.958048,11.8835901 185.456739,14.1790169 C186.286707,16.1408657 186.905008,18.2430912 187.328832,20.450966 C187.638228,22.0606505 187.832215,23.7319638 187.929453,25.4380044 C188.20349,30.267058 187.673588,35.4394718 186.436985,40.6466129" fill="#44372D"></path>
                            <path d="M173.707054,47.7665149 C167.078226,47.7665149 165.100379,46.2670402 164.03385,41.2184903 C163.795925,40.0910191 164.256206,39.4243736 164.875104,38.6789341 C165.749444,37.6235714 168.047931,36.8704912 173.707054,36.8704912 C181.909888,36.8704912 182.463588,39.5294324 182.463588,40.8426666 C182.463588,44.6214383 182.026175,47.7665149 173.707054,47.7665149 L173.707054,47.7665149 Z M156.96615,41.2184903 C155.899621,46.2670402 153.921774,47.7665149 147.292946,47.7665149 C138.973825,47.7665149 138.536412,44.6214383 138.536412,40.8426666 C138.536412,39.5294324 139.090112,36.8704912 147.292946,36.8704912 C152.952069,36.8704912 155.250556,37.6235714 156.124896,38.6789341 C156.743794,39.4243736 157.204075,40.0910191 156.96615,41.2184903 L156.96615,41.2184903 Z M185,35.2607048 L180.230299,35.2607048 C178.733656,34.4909108 176.639036,34 173.707054,34 C168.842475,34 165.537792,34.9130559 163.836309,36.6957117 C163.033006,36.2649709 161.843865,35.7812231 160.5,35.7812231 C159.156135,35.7812231 157.966994,36.2649709 157.163691,36.6957117 C155.462208,34.9130559 152.157525,34 147.292946,34 C144.360964,34 142.266344,34.4909108 140.769701,35.2607048 L136,35.2607048 L136,38.6087358 L137.565735,39.1478781 C137.405171,39.7758429 137.339973,40.4119258 137.339973,41.0260418 C137.339973,46.0765019 138.96896,49 147.292946,49 C154.324642,49 157.113089,47.0315813 158.344561,41.2003438 C158.494906,40.4868995 158.510962,39.8068829 158.410245,39.1684123 C158.799003,38.9248671 159.440283,38.7114068 160.5,38.7114068 C161.559717,38.7114068 162.200997,38.9248671 162.589755,39.1684123 C162.489038,39.8068829 162.505094,40.4868995 162.655439,41.2003438 C163.886911,47.0315813 166.675358,49 173.707054,49 C182.03104,49 183.660027,46.0765019 183.660027,41.0260418 C183.660027,40.4119258 183.594342,39.7758429 183.434265,39.1478781 L185,38.6087358 L185,35.2607048 L185,35.2607048 Z" fill="#3C3A40"></path>
                            <path d="M73.2782349,102.983218 C73.244346,103.180669 73.2012587,103.351437 73.1586555,103.531422 C72.7224567,105.398713 72.2354245,107.137442 71.7057891,108.721898 C70.7912724,111.454187 69.816724,113.714923 68.5773578,115.41096 C68.0046351,116.207554 67.3636504,116.875587 66.6456895,117.415059 C65.2697994,118.451311 63.5860043,119 61.4490659,119 L29.5513636,119 C27.3205046,119 25.585392,118.400371 24.1751288,117.278251 C23.5254298,116.764491 22.9531913,116.13915 22.4230717,115.41096 C21.1837056,113.714923 20.2091571,111.454187 19.2951246,108.721898 C18.7650051,107.137442 18.2774888,105.398713 17.8417741,103.531422 C17.7991709,103.351437 17.7565677,103.180669 17.7221947,103.000683 C12.7221268,80.9458924 14.2093662,41.8555333 25.5427887,30.0788446 C30.1923483,25.2483404 35.9447501,21 45.4999727,21 C53.0731777,21 58.261087,23.6721319 62.3979556,27.1922824 C63.4833693,28.1004579 64.4918067,29.0765526 65.4576408,30.0788446 C65.842038,30.4815079 66.218205,30.9181307 66.5774275,31.3804658 C76.8849841,44.5019529 78.1074058,81.6997946 73.2782349,102.983218" fill="#44372D"></path>
                            <polyline fill="#E6E7E3" points="36.7657379 98 59.2342621 98 61 108 35 108 36.7657379 98"></polyline>
                            <polyline fill="#F1C9B2" points="56.6670679 99.241462 56.6670679 88 39.3334136 88 39.3334136 99.241462 35 99.5832252 39.3334136 128 56.6670679 128 61 99.5832252 56.6670679 99.241462"></polyline>
                            <path d="M57,100 L39,93.9983564 L39,91 C41.943,93.0842053 45.094,94.3814715 48,94.3814715 L48.0005,94.3814715 C50.9065,94.3814715 54.057,93.0851915 57,91.0009861 L57,100" fill="#E49D7E"></path>
                            <path d="M72.5740265,183 L21.7593964,183 C10.1017546,203.120652 22.7878839,230.345049 28.7363807,294.159944 C29.8117714,303.235551 26.7006815,330.878472 25.8549717,351.790099 L24.0973075,369 L35.4121201,369 L37.09677,351.790099 L43.1458429,293.934921 L46.2124472,217.044439 L47.1664697,217.044439 L48.1209757,210.933899 L50.2736913,345.679559 L50.2180843,369 L61.5324134,369 L61.5159731,351.790099 C61.340932,236.900786 87.0579538,207.99793 72.5740265,183" fill="#F1C9B2"></path>
                            <polyline fill="#FFFFFF" points="82.0123322 189 96 186.536885 82.7543978 113 67 116.886945 82.0123322 189"></polyline>
                            <polyline fill="#D5BD9E" points="30 196.618555 63.0260502 233 110 189.381445 76.9739498 153 30 196.618555"></polyline>
                            <polyline fill="#F4F4F2" points="35 195.901073 63.9035478 227 109 186.098927 80.0964522 155 35 195.901073"></polyline>
                            <path d="M88.2992238,164.499005 L99.425714,176.882498 L97.1813146,178.988155 C96.7486124,179.393951 96.073246,179.364574 95.6756277,178.922431 L85.9905038,168.1432 C85.5928856,167.700559 85.6216349,167.010458 86.0548245,166.604662 L88.2992238,164.499005 L88.2992238,164.499005 Z M97.1735182,168.569908 C96.8845628,168.840771 96.4348058,168.821352 96.1697269,168.526092 C95.9041608,168.230832 95.9236519,167.771262 96.2126073,167.5004 C96.5015628,167.22904 96.9508325,167.248956 97.2163986,167.544216 C97.4814775,167.839476 97.4624737,168.298548 97.1735182,168.569908 L97.1735182,168.569908 Z M87.8187683,163.964251 L85.574369,166.069908 C84.8527113,166.746566 84.8044709,167.896735 85.467168,168.634139 L95.1522919,179.413369 C95.8149891,180.150772 96.9405996,180.199567 97.6617701,179.522411 L102,175.453001 L98.7337802,171.818266 C99.7307495,170.197573 99.5952865,168.036648 98.2669685,166.558356 C96.9386505,165.080065 94.8433581,164.757918 93.1778442,165.634735 L89.9121117,162 L87.8187683,163.964251 L87.8187683,163.964251 Z" fill="#9FA2A1"></path>
                            <path d="M96,203.213316 C95.2162012,200.096043 91.9323943,198.319728 88.6652541,199.244984 C85.3985769,200.170731 83.3851445,203.447209 84.1694063,206.564482 L85.787467,213 C94.7027736,211.352425 96,203.213316 96,203.213316" fill="#F1C9B2"></path>
                            <path d="M20.9508595,178 L73.0489267,178 C73.0489267,178 84.5741059,210.262729 72.4561261,264.410163 C72.3776318,264.761442 71.8927007,265 71.5358646,265 L22.4639215,265 C22.1070854,265 21.6226359,264.761442 21.5436601,264.410163 C9.42616182,210.262729 20.9508595,178 20.9508595,178" fill="#3B3940"></path>
                            <path d="M35.6523561,101 L36.3297961,103.56021 C37.5009309,106.939259 40.3673583,107.594038 47.4990953,107.594038 C55.5452073,107.594038 58.752047,105.429616 59.7041381,102.381608 L60.0696946,101 C74.8892401,106.605784 70.3425099,153.331203 70.3425099,153.331203 L70.4353497,178.996105 L47.8250016,179 L24,178.996105 L24.6208658,153.331203 C24.6208658,153.331203 20.8328105,106.605784 35.6523561,101" fill="#EBADC5"></path>
                            <path d="M46,119.5 C46,120.328333 46.6716667,121 47.5,121 C48.32875,121 49,120.328333 49,119.5 C49,118.67125 48.32875,118 47.5,118 C46.6716667,118 46,118.67125 46,119.5" fill="#E379A3"></path>
                            <path d="M46,136.5 C46,137.328333 46.6716667,138 47.5,138 C48.32875,138 49,137.328333 49,136.5 C49,135.671667 48.32875,135 47.5,135 C46.6716667,135 46,135.671667 46,136.5" fill="#E379A3"></path>
                            <path d="M46,154.5 C46,155.328333 46.6716667,156 47.5,156 C48.32875,156 49,155.328333 49,154.5 C49,153.671667 48.32875,153 47.5,153 C46.6716667,153 46,153.671667 46,154.5" fill="#E379A3"></path>
                            <path d="M46,171.500417 C46,172.32875 46.6716667,173 47.5,173 C48.32875,173 49,172.32875 49,171.500417 C49,170.671667 48.32875,170 47.5,170 C46.6716667,170 46,170.671667 46,171.500417" fill="#E379A3"></path>
                            <polyline fill="#E379A3" points="48 107.858351 53.5349637 114 63 102.100272 57.0929499 99 54.8714177 101.167019 48 107.858351"></polyline>
                            <polyline fill="#E379A3" points="37.9014905 99 47 107.854324 41.4639786 114 32 102.093728 37.9014905 99"></polyline>
                            <path d="M56,237.377639 L58.2862589,248 L83,247.9966 C82.034669,233.290734 73.2515718,154.079856 73.2515718,154.079856 C78.643572,138.509396 82.2761237,123.293031 82.9278075,114.949701 C83.206334,111.383009 80.7064243,107.408792 77.3582526,106.111415 L59.8276666,100 L56,150.008979 L56,237.377639" fill="#FFFFFF"></path>
                            <path d="M39,237.377639 L36.7141876,248 L12,247.9966 C12.9653484,233.290734 21.7481166,154.079856 21.7481166,154.079856 C16.3565067,138.509396 14.4794674,123.293031 13.8282597,114.949701 C13.5497281,111.383009 16.0496829,107.408792 19.3979151,106.111415 L35.1727521,100 L39,150.008979 L39,237.377639" fill="#FFFFFF"></path>
                            <polyline fill="#FFFFFF" points="58 214.809771 77 220 77 198.190712 58 193 58 214.809771"></polyline>
                            <g stroke-width="1" fill="none" transform="translate(58.000000, 193.000000)">
                                <mask id="mask-4" fill="white">
                                    <use xlink:href="#path-3"></use>
                                </mask>
                                <g></g>
                                <polygon fill="#E6E7E3" mask="url(#mask-4)" points="0.1915 1.6848 0.6575 1.6848 0.6575 0.1936 0.1915 0.1936"></polygon>
                            </g>
                            <polyline fill="#E6E7E3" points="76.5589539 200 58 194.833099 58 193 77 198.29032 76.5589539 200"></polyline>
                            <polyline fill="#E6E7E3" points="67 101.892046 66.6859493 110.484862 62.0877529 114.014757 65.6661838 118.579301 56 149 58.89122 98 67 101.892046"></polyline>
                            <polyline fill="#E6E7E3" points="29 101.892046 29.3135514 110.484862 33.9124766 114.014757 30.3338785 118.579301 40 149 37.1091589 98 29 101.892046"></polyline>
                            <path d="M27.6399836,187 L29.105419,190.601882 C30.4229315,191.332677 34.0082777,193.738397 35.8447094,198.253154 C36.2627937,199.280137 35.8076098,200.463896 34.8282747,200.897511 C34.3122093,201.125729 33.7561905,201.094473 33.2819811,200.869231 L33.9816421,202.588312 C35.2349437,205.669757 33.8689163,209.22153 30.930911,210.521879 C27.9929057,211.822228 24.5954358,210.378995 23.3416585,207.298046 L17,191.709238 L27.6399836,187" fill="#F1C9B2"></path>
                            <path d="M30.2192551,192 C29.6884516,191.62307 29.2340126,191.35095 28.9149684,191.176428 L27.471539,187.685984 L26.9665027,187.905699 L20,171.052525 C20.2703209,168.465461 20.5228391,166.094267 20.7509955,164 L32,191.225467 L30.2192551,192" fill="#E6E7E3"></path>
                            <path d="M29.7802103,192 L28,187.22468 L28.4657929,187 L29.7970618,190.569322 C30.091315,190.747788 30.5104422,191.026057 31,191.411504 L29.7802103,192" fill="#D6B49F"></path>
                            <path d="M18.0026249,197 L31,191.519513 L14.6434807,153.217691 L21.3356205,137.722203 L14.6299221,112 L0.422441592,151.027421 C-0.185274428,152.694182 -0.135882369,154.527426 0.561417287,156.159544 L18.0026249,197" fill="#FFFFFF"></path>
                            <polyline fill="#FFFFFF" points="37 214.809771 18 220 18 198.190712 37 193 37 214.809771"></polyline>
                            <polyline fill="#E6E7E3" points="37 195 37 193 37.932 194.86588 37 195"></polyline>
                            <polyline fill="#E6E7E3" points="18.4410461 200 18 198.29032 37 193 37 194.833099 18.4410461 200"></polyline>
                            <path d="M68.545322,59.2078947 L68.545322,50.0394737 C68.545322,40.3019444 57.3566135,28 48.4997569,28 C39.6433865,28 28.454678,40.3019444 28.454678,50.0394737 L28.454678,59.2078947 C25.9944941,59.2078947 24,61.181652 24,63.6157895 L24,68.2 C24,70.6346272 25.9944941,72.6078947 28.454678,72.6078947 C28.454678,82.3459137 39.6433865,95 48.4997569,95 C57.3566135,95 68.545322,82.3459137 68.545322,72.6078947 C71.0055059,72.6078947 73,70.6346272 73,68.2 L73,63.6157895 C73,61.181652 71.0055059,59.2078947 68.545322,59.2078947" fill="#F1C9B2"></path>
                            <path d="M57,91 L57,91 C62.8160242,86.5849221 67.7575383,78.6091082 67.7575383,71.9838002 C70.1005216,71.9838002 72,70.0123552 72,67.5799766 L72,63 L72,67.5799766 C72,70.0123552 70.1005216,71.9838002 67.7575383,71.9838002 C67.7575383,78.6091082 62.8160242,86.5849221 57,91" fill="#402E25"></path>
                            <polyline fill="#E7A689" points="57 91.001 57 91 57 91.001"></polyline>
                            <path d="M48,94 L48,94 C50.9061615,94 54.0568365,92.8496208 57,91 C54.0568365,92.8496208 50.9061615,94 48,94" fill="#DA8161"></path>
                            <path d="M67,45 C64.3284174,36.5690037 55.3506907,28 48,28 L48.0004798,28 C55.3506907,28 64.3284174,36.5690037 67,45" fill="#402E25"></path>
                            <path d="M47.4616883,95 L47.4616883,78.6907895 L43,77.8092105 C43,77.8092105 44.206467,70.5430409 47.4616883,63.7039474 L47.4616883,28 C54.9200692,28 64.0299174,36.6972661 66.7408166,45.2544591 C67.2539789,46.8746053 67.5383117,48.489364 67.5383117,50.0394737 L67.5383117,59.2078947 C70.0023672,59.2078947 72,61.181652 72,63.6157895 L72,68.2 C72,70.6346272 70.0023672,72.6078947 67.5383117,72.6078947 C67.5383117,79.2393275 62.3414479,87.2225146 56.2248842,91.641674 L56.2248842,91.6421637 C53.3591599,93.712405 50.2913841,95 47.4612014,95 M58.4182392,61.6885599 C58.3778289,61.6885599 58.3364448,61.6895395 58.2950608,61.6910088 C56.3850648,61.7581067 54.89037,63.3699269 54.9570714,65.291769 C55.0223121,67.1724708 56.558391,68.6520541 58.4138574,68.6520541 C58.4547545,68.6520541 58.4956517,68.6510746 58.5370358,68.650095 C60.4470318,68.5829971 61.9417265,66.9706871 61.8750252,65.048845 C61.8097844,63.168633 60.2741925,61.6885599 58.4182392,61.6885599" fill="#E7A689"></path>
                            <path d="M35.998101,67 C34.3894161,67 33.0584109,65.7251372 33.0018621,64.1046561 C32.9440474,62.448727 34.2396042,61.059924 35.8951316,61.00211 C35.9310021,61.000844 35.9664506,61 36.001899,61 C37.6105839,61 38.9415891,62.2752849 38.9981379,63.8953439 C39.0559526,65.551273 37.7603958,66.940498 36.1048684,66.998312 C36.0689979,66.999156 36.0335494,67 35.998101,67" fill="#E49D7E"></path>
                            <path d="M38.9981379,62.8951319 C39.0559526,64.5510812 37.7603958,65.9403231 36.1048684,65.9981379 C34.4489189,66.0559526 33.0596769,64.7603959 33.0018621,63.1044466 C32.9440474,61.4489193 34.2396042,60.0596775 35.8951316,60.0018627 C37.5510811,59.944048 38.9403231,61.2391826 38.9981379,62.8951319" fill="#2D2119"></path>
                            <path d="M38.9993877,62.9651115 C39.0185198,63.5171381 38.5869224,63.9802553 38.0349054,63.9993877 C37.4828884,64.0185201 37.0197794,63.5869152 37.0006473,63.0348885 C36.9809525,62.4828619 37.4131126,62.0197447 37.9651296,62.0006123 C38.5171466,61.9814799 38.9802556,62.4130848 38.9993877,62.9651115" fill="#FFFFFF"></path>
                            <path d="M40.9648941,60.4575252 C40.3395764,59.1686957 38.7386296,58.1912839 36.9794469,58.024997 C35.9018224,57.920909 33.8781188,58.0626548 32.1399071,60.0166321 C32.0564997,60.0229789 31.9802414,60.0246714 31.8830121,60.0157858 C31.6899834,60.0005535 31.4206964,59.9447014 31.1585587,59.8452677 C30.6247508,59.6548628 30.1810231,59.2554357 30.1810231,59.2554357 L30.0594865,59.2372414 C30.0065823,59.2596669 29.9851347,59.3159421 30.0108719,59.3629086 C30.0108719,59.3629086 30.0771212,59.4936533 30.205807,59.6815195 C30.3311566,59.870655 30.5299046,60.1152195 30.7820335,60.3288961 C31.0317793,60.5434189 31.3301397,60.7266307 31.5813154,60.8374887 C31.7057117,60.894187 31.8191458,60.9331143 31.9030299,60.9593478 C31.9835777,60.9847351 32.068415,60.9991213 32.05364,60.9974288 C32.2876575,61.0185849 32.5002274,60.9073038 32.6026994,60.7329776 C33.7413306,59.3214427 35.2641127,58.6266764 36.8893668,58.7823853 C38.3258818,58.9182075 39.678036,59.7310248 40.1765744,60.758788 C40.2718972,60.9525779 40.5245027,61.0414335 40.7404089,60.9580785 C40.9577449,60.8747234 41.0587871,60.6508919 40.9648941,60.4575252" fill="#2D2119"></path>
                            <path d="M57.998101,67 C56.3898381,67 55.0584109,65.7251372 55.0018621,64.1046561 C54.9440474,62.448727 56.2396042,61.059924 57.8951316,61.00211 C57.9310021,61.000844 57.9668726,61 58.001899,61 C59.6105839,61 60.9415891,62.2752849 60.9981379,63.8953439 C61.0559526,65.551273 59.7603958,66.940498 58.1048684,66.998312 C58.0689979,66.999156 58.0335494,67 57.998101,67" fill="#DA8161"></path>
                            <path d="M60.9981379,62.8951319 C61.0559526,64.5510812 59.7603958,65.9403231 58.1048684,65.9981379 C56.4489189,66.0559526 55.0596769,64.7603959 55.0018621,63.1044466 C54.9440474,61.4489193 56.2396042,60.0596775 57.8951316,60.0018627 C59.5510811,59.944048 60.9403231,61.2391826 60.9981379,62.8951319" fill="#2D2119"></path>
                            <path d="M60.9993877,62.9651115 C61.0185198,63.5171381 60.5869224,63.9802553 60.0349054,63.9993877 C59.4828884,64.0185201 59.0197794,63.5869152 59.0006473,63.0348885 C58.9809525,62.4828619 59.4131126,62.0197447 59.9651296,62.0006123 C60.5171466,61.9814799 60.9802556,62.4130848 60.9993877,62.9651115" fill="#FFFFFF"></path>
                            <path d="M54.0351059,60.4575252 C54.6604236,59.1686957 56.2613704,58.1912839 58.0205531,58.024997 C59.0986542,57.920909 61.1218812,58.0626548 62.8600929,60.0166321 C62.9435003,60.0229789 63.0202352,60.0246714 63.1169879,60.0157858 C63.3100166,60.0005535 63.5793036,59.9447014 63.8414413,59.8452677 C64.3752492,59.6548628 64.8189769,59.2554357 64.8189769,59.2554357 L64.9405135,59.2372414 C64.9934177,59.2596669 65.0148653,59.3159421 64.9891281,59.3629086 C64.9891281,59.3629086 64.9228788,59.4936533 64.7946696,59.6815195 C64.6688434,59.870655 64.4700954,60.1152195 64.2179665,60.3288961 C63.9682207,60.5434189 63.6698603,60.7266307 63.4186846,60.8374887 C63.2942883,60.894187 63.1808542,60.9331143 63.0969701,60.9593478 C63.0164223,60.9847351 62.931585,60.9991213 62.94636,60.9974288 C62.7123425,61.0185849 62.4997726,60.9073038 62.3973006,60.7329776 C61.2586694,59.3214427 59.7358873,58.6266764 58.1106332,58.7823853 C56.6741182,58.9182075 55.321964,59.7310248 54.8234256,60.758788 C54.7281028,60.9525779 54.4754973,61.0414335 54.2595911,60.9580785 C54.0422551,60.8747234 53.9412129,60.6508919 54.0351059,60.4575252" fill="#2D2119"></path>
                            <path d="M55,81 C55,84.3135937 51.8655556,87 48,87 C44.1339583,87 41,84.3135937 41,81 L55,81" fill="#E05844"></path>
                            <path d="M52.175,83 L42.825,83 C42.3694167,83 42,82.6641667 42,82.25 L42,81 L53,81 L53,82.25 C53,82.6641667 52.6305833,83 52.175,83" fill="#FFFFFF"></path>
                            <path d="M60.0293884,69.4672977 C54.9906515,69.4672977 51.9896892,66.8836401 50.8562409,61.5683496 C50.3381627,59.3028625 54.4832753,57.3843844 60.0293884,57.3843844 C62.5438923,57.3843844 68.0958429,57.6009105 68.0958429,60.0219372 C68.0958429,61.5990793 67.7066761,69.4672977 60.0293884,69.4672977 L60.0293884,69.4672977 Z M45.1437591,61.5683496 C44.0103108,66.8836401 41.0093485,69.4672977 35.9706116,69.4672977 C28.2933239,69.4672977 27.9041571,61.5990793 27.9041571,60.0219372 C27.9041571,57.6009105 33.4561077,57.3843844 35.9706116,57.3843844 C41.5167247,57.3843844 45.6618373,59.3028625 45.1437591,61.5683496 L45.1437591,61.5683496 Z M71,56.1551969 L67.9212043,56.1551969 C66.1597382,54.9959785 62.9423018,54.995033 60.0293884,55.0007061 C55.1254005,55.0007061 51.8422923,55.9358342 50.2569241,57.7729968 C49.7101448,57.4699548 48.9070018,57.381075 47.9997568,57.381075 C47.0929982,57.381075 46.2898552,57.4699548 45.7430759,57.7729968 C44.1577077,55.9358342 40.8745995,55.0007061 35.9706116,55.0007061 C33.0576982,54.995033 29.8402618,54.9959785 28.0787957,56.1551969 L25,56.1551969 L25,59.3889056 L26.3309504,60.1075075 C26.359165,65.1528495 28.8931272,71 35.9706116,71 C41.7910872,71 45.396231,67.9308133 46.6868053,61.8794286 C46.7806918,61.4407032 46.8176627,61.015688 46.8103658,60.6053285 C46.8984148,60.2682474 47.3498482,59.934003 47.9997568,59.934003 C48.6501518,59.934003 49.1015852,60.2682474 49.1896342,60.6053285 C49.1823373,61.015688 49.2193082,61.4407032 49.3131947,61.8794286 C50.603769,67.9308133 54.2089128,71 60.0293884,71 C67.1068728,71 69.640835,65.1528495 69.6690496,60.1075075 L71,59.3889056 L71,56.1551969 L71,56.1551969 Z" fill="#FFFFFF"></path>
                            <path d="M27.4096978,91 C21.1520741,70.095506 16.77828,57.1238069 20.1962086,43.0184386 C26.8348315,15.6220751 60.2511576,13.997663 63.6358932,31.1905221 C64.3560394,34.8496633 71.7220245,38.4606453 67.9125133,56.4823254 C67.619548,56.378783 59.0432169,46.2152508 56.8082138,40.9620378 C27.4096978,40.8705352 37.2473672,84.502833 27.4096978,91" fill="#44372D"></path>
                            <path d="M66.9615346,120.034517 C66.9270656,119.218978 66.048856,101.513671 57,97 L57,99.0556724 C64.3593766,103.814796 65.1571586,119.928616 65.1651514,120.110231 L65.2036167,121 L67,120.924286 L66.9615346,120.034517" fill="#9FA2A1"></path>
                            <path d="M39,99.005942 L39,97 C23.9518932,104.231214 30.2721387,141.51111 30.5581066,143.14485 L30.7069318,144 L32.5111198,143.716876 L32.3617867,142.861727 C32.2952471,142.482302 26.2243981,106.727326 39,99.005942" fill="#9FA2A1"></path>
                            <path d="M58.7359055,127.870808 C58.8638986,125.429123 59.7788832,119.750661 65.5000345,119.750661 C71.22071,119.750661 72.1356945,125.429123 72.2636877,127.870808 C72.5667793,133.660631 69.9783675,140.246519 65.5000345,143.771182 C61.0212257,140.246519 58.4332897,133.660631 58.7359055,127.870808 L58.7359055,127.870808 Z M71.3786793,146.254202 C69.7885189,146.079623 68.3149323,145.556856 66.9745727,144.774894 C71.62848,140.797491 74.2934974,133.881409 73.9742282,127.776467 C73.6578139,121.7469 70.4113555,118 65.5000345,118 C60.5887135,118 57.3417793,121.7469 57.0258408,127.776467 C56.7060958,133.881409 59.371589,140.797491 64.0254962,144.774894 C62.6851367,145.556856 61.2115501,146.079623 59.6209139,146.254202 C59.1498611,146.30575 58.8096562,146.737093 58.860568,147.217552 C58.9076733,147.667374 59.2788058,148 59.711318,148 L59.8031495,147.994651 C61.8919598,147.765606 63.8013893,147.011849 65.5000345,145.88705 C67.1982039,147.011849 69.1076334,147.765606 71.1964436,147.994651 L71.288751,148 C71.7207874,148 72.0923957,147.666402 72.1390252,147.217552 C72.189937,146.737093 71.8497321,146.30575 71.3786793,146.254202 L71.3786793,146.254202 Z" fill="#9FA2A1"></path>
                            <path d="M58.0243301,148 C57.4563048,148 56.8834153,147.980538 56.3089044,147.940532 C55.5068591,147.884668 54.9242412,147.406403 55.0080128,146.871914 C55.0917844,146.337064 55.8100581,145.954307 56.6110225,146.004405 C57.5503451,146.069639 58.486425,146.07036 59.3857534,146.006207 C60.169423,145.94746 60.9060724,146.335622 60.9914654,146.870472 C61.0779393,147.404601 60.4974833,147.884308 59.695438,147.941253 C59.1463288,147.980538 58.5880318,148 58.0243301,148" fill="#3B3940"></path>
                            <path d="M72.9753943,148 C72.412183,148 71.8532958,147.980538 71.3041377,147.941255 C70.5025616,147.884311 69.9220539,147.404618 70.0085355,146.870504 C70.0939361,146.335669 70.8236244,145.946797 71.6138499,146.006263 C72.5148799,146.070414 73.448881,146.069694 74.3893682,146.004461 C75.1920254,145.954005 75.909282,146.337111 75.99198,146.871946 C76.0757591,147.40642 75.4936299,147.884672 74.6915132,147.940534 C74.1164107,147.980538 73.5434702,148 72.9753943,148" fill="#3B3940"></path>
                            <path d="M38,143.5 C38,146.537731 35.5372222,149 32.5,149 C29.4622685,149 27,146.537731 27,143.5 C27,140.462778 29.4622685,138 32.5,138 C35.5372222,138 38,140.462778 38,143.5" fill="#E6E7E3"></path>
                            <path d="M32,136 C28.1397917,136 25,139.140278 25,143 C25,146.859722 28.1397917,150 32,150 C35.8597222,150 39,146.859722 39,143 C39,139.140278 35.8597222,136 32,136 L32,136 Z M32,137.75 C34.8991667,137.75 37.25,140.100833 37.25,143 C37.25,145.899653 34.8991667,148.25 32,148.25 C29.1003472,148.25 26.75,145.899653 26.75,143 C26.75,140.100833 29.1003472,137.75 32,137.75 L32,137.75 Z" fill="#9FA2A1"></path>
                            <path d="M35,143.5 C35,145.432931 33.4329308,147 31.5,147 C29.5666147,147 28,145.432931 28,143.5 C28,141.567069 29.5666147,140 31.5,140 C33.4329308,140 35,141.567069 35,143.5" fill="#9FA2A1"></path>
                        </g>
                    </g>
                </g>
            </g>
        </g>
    </g>
</svg>