<svg xmlns="http://www.w3.org/2000/svg" xmlns:xlink="http://www.w3.org/1999/xlink" width="470" height="508" viewBox="0 0 470 508">
    <defs>
        <path id="a" d="M0 0h375v499H0z"/>
        <path id="c" d="M.926 2.365l-.656-.14L.926.272z"/>
    </defs>
    <g fill="none" fill-rule="evenodd">
        <circle cx="235" cy="235" r="235" fill="#FEF9F3"/>
        <g transform="translate(38 9)">
            <mask id="b" fill="#fff">
                <use xlink:href="#a"/>
            </mask>
            <g mask="url(#b)">
                <path fill="#E5E6E3" d="M264.403 132.896h34.653l2.389 15.44h-39.431l2.389-15.44"/>
                <path fill="#F2C9B2" d="M301.445 136.674l-4.682-2.079v-14.333h-30.048v14.333l-4.701 1.954 1.252 40.65h3.45v6.231h30.047v-6.232h3.43l1.252-40.524"/>
                <path fill="#E59E7F" d="M297.22 132.896l-29.573-5.017v-5.955c5.015 3.39 10.336 5.444 14.596 5.445h.138l.027-.001H282.483c.01-.002.019-.002.029-.002H282.55c.011 0 .02 0 .032-.002h.002c4.31-.107 9.64-2.245 14.635-5.698v11.23"/>
                <path fill="#323138" d="M287.98 283.096h-51.315l3.135 245.655h32.492l5.927-210.403h8.42l5.936 210.403h32.492l3.135-245.655H287.98"/>
                <path fill="#1B1A18" d="M328.15 291.519h-91.485v-8.423h91.537l-.052 8.423"/>
                <path fill="#3C3A41" d="M278.564 283.089c-1.48 0-2.683 1.294-2.683 2.887v4.066c0 1.594 1.204 2.888 2.683 2.888h7.74c1.478 0 2.682-1.294 2.682-2.888v-4.066c0-1.593-1.204-2.887-2.683-2.887h-7.74zm7.74 12.64h-7.74c-2.914 0-5.284-2.55-5.284-5.687v-4.066c0-3.136 2.37-5.687 5.284-5.687h7.74c2.913 0 5.283 2.55 5.283 5.687v4.066c0 3.137-2.37 5.688-5.284 5.688z"/>
                <path fill="#A4D4E2" d="M302.307 137.107l-1.096 4.1c-1.895 5.412-6.755 14.264-18.294 14.264-13.019 0-17.985-11.269-19.526-16.152l-.592-2.212c-23.977 8.979-16.62 83.82-16.62 83.82l-.151 62.163 36.584.006 38.549-.006-1.005-62.163s6.129-74.841-17.849-83.82"/>
                <path fill="#323138" d="M288.77 152.738l-2.808 5.425h-8.546l-2.728-5.425 7.041-5.805 7.042 5.805"/>
                <path fill="#85C5DA" d="M281.73 147.564l-9.354 9.195-15.995-17.818 9.982-4.642 3.755 3.245 11.611 10.02M296.25 134.3l-14.52 13.257 8.835 9.202 15.105-17.828-9.42-4.632"/>
                <path fill="#323138" d="M286.685 158.163l3.494 112.183-7.746 8.539-7.745-8.54 3.414-112.182h8.583"/>
                <path fill="#FFFFFE" d="M260.606 215.683V374.34h-37.611c.957-14.927 3.295-79.095 4.907-124.908.133-3.71.255-7.298.376-10.738.763-21.807 1.284-37.312 1.284-37.312-.097.123-18.684-20.64-14.928-42.9 2.314-13.761 22.21-13.773 45.862-22.779l.11 79.98M301.445 215.682l.102-79.979c23.654 9.01 43.55 9.014 45.87 22.783 3.752 22.252-14.837 43.026-14.933 42.902 0 0 5.037 149.136 6.571 172.946l-37.61.006V215.682"/>
                <path fill="#F2C9B2" d="M309.372 302.273l10.912-23.388 16.367 7.763-10.911 23.387c-2.157 4.624-7.569 6.632-12.089 4.49-4.52-2.145-6.436-7.629-4.279-12.252"/>
                <path fill="#F2C9B2" d="M305.96 295.743c3.736-7.839 11.202-11.077 11.61-11.17a2.931 2.931 0 0 1 3.524 2.229c.343 1.59-.67 3.168-2.27 3.533-.032.008-.364.183-.882.521-.519.338-1.223.841-2 1.504-1.554 1.324-3.399 3.29-4.628 5.869-.705 1.48-2.476 2.124-3.955 1.437a2.924 2.924 0 0 1-1.4-3.923"/>
                <path fill="#E5E6E3" d="M315.2 284.5l-2.489-1.202 20.758-45.122c.118 3.377.236 6.898.366 10.54l-13.556 29.469-.532-.257-2.464 5.358c-.51.255-1.234.655-2.083 1.214"/>
                <path fill="#D7B5A0" d="M316.936 284.5l2.316-5.615.5.268-2.054 4.98-.035.008c-.065.017-.324.134-.727.359M317.258 287.307l-1.73-.995a19.829 19.829 0 0 1 2.027-1.406c.417-.248.686-.378.753-.397l.036-.009-1.086 2.807"/>
                <path fill="#FFFFFE" d="M335.248 294.326l-19.72-9.338 24.22-51.83-17.912-66.123 26.335-8.872 13.647 74.47a11.03 11.03 0 0 1-.855 6.667l-25.715 55.026"/>
                <path fill="#F2C9B2" d="M254.087 302.273l-10.912-23.388-16.368 7.763 10.912 23.387c2.156 4.624 7.568 6.632 12.088 4.49 4.52-2.145 6.436-7.629 4.28-12.252"/>
                <path fill="#F2C9B2" d="M257.499 295.743c-3.736-7.839-11.203-11.077-11.61-11.17a2.93 2.93 0 0 0-3.524 2.229c-.344 1.59.67 3.168 2.269 3.533.033.008.364.183.882.521.519.338 1.223.841 2 1.504 1.554 1.324 3.4 3.29 4.628 5.869.706 1.48 2.476 2.124 3.956 1.437a2.924 2.924 0 0 0 1.399-3.923"/>
                <path fill="#E5E6E3" d="M246.852 284.5a20.914 20.914 0 0 0-2.082-1.214l-2.464-5.357-.534.257-13.556-29.47c.13-3.642.247-7.163.365-10.54l20.758 45.122-2.487 1.202"/>
                <path fill="#D7B5A0" d="M246.523 284.5c-.403-.225-.662-.342-.727-.36l-.037-.008-2.053-4.978.502-.269 2.315 5.615M246.2 287.307l-1.085-2.807.037.01c.068.019.336.148.753.397.496.295 1.2.759 2.026 1.405l-1.731.995"/>
                <path fill="#FFFFFE" d="M229.619 294.326L203.904 239.3a11.03 11.03 0 0 1-.855-6.667l13.647-74.47 26.336 8.872-17.914 66.123 24.221 51.83-19.72 9.338M260.606 319.327l-22.654 7.285-8.328-30.615 27.604-7.286 3.378 30.616"/>
                <path fill="#E5E6E3" d="M256.934 291.519l-.553-2.808 1.31 2.696-.757.112M230.239 297.134l-.615-2.058 26.497-6.365.26 2.143-26.142 6.28M250.748 139.217l.49 13.953 7.188 5.733-5.594 7.412 8.912 49.402 1.678-82.821-12.674 6.32"/>
                <path fill="#FFFFFE" d="M302.853 319.327l22.654 7.285 8.328-30.615-27.604-7.286-3.378 30.616"/>
                <path fill="#E5E6E3" d="M306.427 291.519l-.757-.112 1.31-2.696-.553 2.808"/>
                <path fill="#E5E6E3" d="M331.812 297.134l-26.142-6.28.26-2.143 26.497 6.365-.615 2.058M311.303 139.217l-.49 13.953-7.188 5.733 5.593 7.412-8.91 49.402-1.68-82.821 12.675 6.32"/>
                <path fill="#9FA2A1" d="M311.249 161.02c-.05-1.145-1.286-26-14.029-32.336v2.885c10.364 6.682 11.488 29.301 11.499 29.556l.055 1.25 2.529-.107-.054-1.249M267.647 131.5v-2.816c-21.192 10.151-12.291 62.483-11.889 64.777l.21 1.2 2.54-.398-.21-1.2c-.093-.532-8.643-50.724 9.349-61.563"/>
                <path fill="#9FA2A1" d="M299.665 173.423c.18-3.427 1.469-11.4 9.525-11.4 8.057 0 9.345 7.973 9.526 11.4.426 8.127-3.219 17.372-9.526 22.32-6.306-4.948-9.952-14.193-9.525-22.32zm17.805 25.805c-2.24-.244-4.316-.979-6.203-2.076 6.554-5.583 10.307-15.292 9.857-23.862-.445-8.464-5.017-13.723-11.934-13.723-6.916 0-11.489 5.259-11.933 13.723-.45 8.57 3.303 18.279 9.857 23.862-1.888 1.097-3.963 1.832-6.203 2.076a1.222 1.222 0 0 0-1.07 1.353c.065.63.589 1.098 1.198 1.098l.129-.007c2.942-.322 5.63-1.38 8.022-2.959 2.392 1.58 5.081 2.637 8.023 2.959l.13.007c.608 0 1.131-.468 1.197-1.098a1.222 1.222 0 0 0-1.07-1.353z"/>
                <path fill="#3B3940" d="M298.663 201.68c-.8 0-1.607-.028-2.417-.084-1.129-.078-1.95-.75-1.831-1.5.117-.751 1.13-1.288 2.257-1.218 1.323.091 2.641.092 3.908.003 1.104-.083 2.14.462 2.261 1.213.122.75-.695 1.423-1.824 1.503-.774.055-1.56.082-2.354.082M319.718 201.68c-.793 0-1.58-.028-2.354-.083-1.129-.08-1.946-.753-1.824-1.503.12-.75 1.148-1.297 2.26-1.213 1.27.09 2.584.089 3.91-.003 1.13-.071 2.14.467 2.256 1.218.118.75-.703 1.422-1.832 1.5-.81.056-1.616.083-2.416.083"/>
                <path fill="#E5E6E3" d="M264.83 195.362c0 4.265-3.468 7.72-7.745 7.72-4.278 0-7.746-3.455-7.746-7.72 0-4.264 3.468-7.72 7.746-7.72 4.277 0 7.745 3.456 7.745 7.72"/>
                <path fill="#9FA2A1" d="M256.38 184.834c-5.435 0-9.857 4.408-9.857 9.826s4.422 9.827 9.858 9.827c5.435 0 9.858-4.409 9.858-9.827s-4.423-9.826-9.858-9.826zm0 2.456c4.084 0 7.394 3.3 7.394 7.37s-3.31 7.37-7.393 7.37-7.393-3.3-7.393-7.37 3.31-7.37 7.393-7.37z"/>
                <path fill="#9FA2A1" d="M260.606 193.959c0 2.713-2.207 4.913-4.93 4.913-2.721 0-4.928-2.2-4.928-4.913 0-2.714 2.207-4.914 4.929-4.914 2.722 0 4.929 2.2 4.929 4.914"/>
                <path fill="#F2C9B2" d="M313.696 80.044l.992-13.069c0-17.09-16.112-30.938-32.956-30.938-16.856 0-32.956 13.848-32.956 30.938l.991 13.056a5.948 5.948 0 0 0-2.504 1.287 6.197 6.197 0 0 0-2.148 4.714v6.436c0 3.402 2.702 6.162 6.065 6.183 0 16.139 19.125 31.437 30.552 31.437s30.552-15.296 30.552-31.434c3.35-.025 6.06-2.781 6.06-6.184v-6.435a6.16 6.16 0 0 0-4.648-5.99"/>
                <path fill="#DB8262" d="M281.74 127.29h-.01.047-.036m.064 0h.044-.044m.07 0h.047-.048m.07 0h.052-.053m.07 0l.056-.002-.057.001m.07-.001h.059-.06m.07-.002h.057-.056m.07 0l.06-.001-.06.001m.07-.001l.06-.001-.06.001m.07-.001l.064-.003-.064.003"/>
                <path fill="#A7B1A0" d="M297.22 121.666c7.431-4.956 14.109-12.742 15.491-21.056-1.382 8.314-8.06 16.1-15.49 21.056"/>
                <path fill="#DB8262" d="M281.73 127.28c4.561-.105 10.204-2.212 15.49-5.614-5.286 3.402-10.929 5.509-15.49 5.615"/>
                <path fill="#A7B1A0" d="M311.303 100.61l.005-.019-.005.019m.03-.09l.01-.034-.01.034m.015-.045l.079-.256c-.026.085-.052.17-.08.256M311.457 100.115c.007-.026.016-.052.021-.077-.005.025-.014.051-.02.076m.025-.09l.008-.028-.008.028m.012-.045l.009-.03-.009.03m.013-.045l.021-.08-.021.08m.022-.09c.003-.006.005-.013.006-.02-.001.007-.003.014-.006.02m.013-.045l.007-.032-.007.032m.011-.046a.146.146 0 0 1 .006-.023c-.003.007-.004.016-.006.023m.01-.045c.002-.002.002-.003.002-.005 0 .002 0 .003-.002.005m.023-.09l.005-.03-.005.03m.01-.045l.005-.024-.005.024m.01-.045c0-.006.002-.012.004-.018l-.004.018m.01-.045c0-.005.002-.01.004-.015l-.005.015m.02-.091c.002-.002.002-.003.002-.005 0 .002 0 .003-.002.005m.01-.045c.014-.072.028-.143.04-.215-.012.072-.026.143-.04.215m.044-.227l.002-.016-.002.016m.008-.045l.03-.178-.03.178m.03-.181l.012-.084-.012.084m.014-.09l.001-.009-.001.008m.012-.09l.023-.171-.023.17m.023-.18c.001-.006.001-.013.003-.018-.002.005-.002.012-.003.017m.028-.272c.002-.002.002-.003.002-.005 0 .002 0 .003-.002.005m.009-.09v-.007.006m.021-.363v-.003.003"/>
                <path fill="#E9A88A" d="M282.204 130.088h-.005v-26.606h-7.51s2.944-13.913 7.51-23.513V36.037h.005c17.275 0 33.799 13.848 33.799 30.938l-1.017 13.07c2.732.663 4.766 3.084 4.766 5.99v6.435c0 3.403-2.778 6.16-6.215 6.184 0 .125 0 .25-.003.375v.002l-.002.068-.005.216-.004.088v.006l-.003.09-.001.004c-.003.09-.008.177-.013.265V99.797l-.012.178-.006.086v.008l-.001.007-.006.087v.004l-.015.185-.003.03-.001.017-.001.012a24.1 24.1 0 0 1-.02.223l-.005.042v.005l-.008.079-.002.015a.387.387 0 0 1-.005.047l-.002.022-.003.025-.002.016-.003.03-.01.09-.001.005-.002.022a.3.3 0 0 0-.003.025l-.002.014c-.001.011-.003.021-.003.032a.354.354 0 0 0-.007.047v.01l-.01.084-.003.015-.004.032-.002.017-.004.03-.002.014-.01.08c0 .002 0 .003-.002.005l-.011.088-.003.015c-.012.09-.025.178-.039.267a.326.326 0 0 0-.002.01l-.005.036-.012.074-.003.02v.005c-1.415 8.822-8.249 17.084-15.853 22.342-5.073 3.508-10.49 5.68-14.868 5.79H282.511l-.03.001h-.005l-.03.001H282.371l-.028.002h-.139m14.394-51.27c-.059 0-.117.002-.176.004-2.728.094-4.863 2.357-4.768 5.055.093 2.64 2.287 4.717 4.937 4.717.059 0 .117-.002.176-.004 2.728-.093 4.863-2.357 4.768-5.054-.093-2.64-2.287-4.717-4.937-4.717"/>
                <path fill="#E69F80" d="M266.236 86.572a4.219 4.219 0 0 1-4.22-4.064 4.216 4.216 0 0 1 4.226-4.358c2.265 0 4.139 1.79 4.219 4.064a4.216 4.216 0 0 1-4.225 4.358"/>
                <path fill="#2D2119" d="M270.46 80.81a4.217 4.217 0 0 1-4.074 4.356 4.22 4.22 0 0 1-4.37-4.062 4.217 4.217 0 0 1 4.075-4.355 4.219 4.219 0 0 1 4.37 4.061"/>
                <path fill="#FFFFFE" d="M271.87 80.908a1.406 1.406 0 0 1-1.358 1.452 1.405 1.405 0 0 1-1.456-1.354 1.405 1.405 0 0 1 1.358-1.452 1.406 1.406 0 0 1 1.457 1.354"/>
                <path fill="#DC8363" d="M295.81 86.572a4.219 4.219 0 0 1-4.22-4.064 4.216 4.216 0 0 1 4.225-4.358c2.265 0 4.14 1.79 4.22 4.064a4.216 4.216 0 0 1-4.226 4.358"/>
                <path fill="#2D2119" d="M300.034 80.81a4.217 4.217 0 0 1-4.075 4.356 4.218 4.218 0 0 1-4.37-4.062 4.217 4.217 0 0 1 4.076-4.355 4.218 4.218 0 0 1 4.37 4.061"/>
                <path fill="#FFFFFE" d="M298.628 80.908a1.405 1.405 0 0 1-1.358 1.452 1.406 1.406 0 0 1-1.457-1.354 1.406 1.406 0 0 1 1.358-1.452 1.405 1.405 0 0 1 1.457 1.354"/>
                <path fill="#E05844" d="M291.587 107.628c0 5.427-4.729 9.827-10.561 9.827-5.834 0-10.563-4.4-10.563-9.827h21.124"/>
                <path fill="#FFFFFE" d="M290.367 110.436H274.5c-.674 0-1.22-.42-1.22-.936v-1.872h18.307v1.872c0 .516-.546.936-1.22.936"/>
                <path fill="#44372D" d="M317.551 79.057c-1.02 4.297-2.375 6.112-4.03 10.323l-.1-11.953-6.964-20.965s-11.045 2.358-24.029 2.901c-12.972-.543-24.017-2.901-24.017-2.901l-7.077 20.965V89.38c-.808-2.037-3.495-8.112-4.017-10.323-1.717-7.236-2.475-14.446-2.114-21.163.137-2.408.397-4.754.833-7.014.584-3.16 1.468-6.173 2.661-8.976 0 0 7.6-19.904 33.731-19.88.547-.012 1.07-.024 1.592-.024 7.052 0 12.027 1.321 16.803 3.667 0 0 7.823 3.766 14.29.68.212-.1.46.06.436.296-.112.864-.486 2.63-1.754 4.272 1.68.074 3.57-.05 5.77-.519l.075-.012v.087c.162 4.346-1.355 8.21-3.47 11.433 1.17 2.754 2.04 5.705 2.637 8.804.436 2.26.709 4.606.846 7 .386 6.78-.36 14.04-2.102 21.35"/>
                <path fill="#3C3A41" d="M299.624 89.052c-9.335 0-12.12-2.105-13.622-9.192-.335-1.583.313-2.518 1.184-3.565 1.232-1.481 4.469-2.538 12.438-2.538 11.552 0 12.332 3.732 12.332 5.576 0 5.304-.616 9.719-12.332 9.719zM276.05 79.86c-1.502 7.087-4.288 9.192-13.623 9.192-11.715 0-12.331-4.415-12.331-9.72 0-1.843.78-5.575 12.331-5.575 7.97 0 11.207 1.057 12.438 2.538.872 1.047 1.52 1.982 1.185 3.565zm39.479-8.363h-6.717c-2.108-1.08-5.058-1.77-9.187-1.77-6.85 0-11.504 1.282-13.9 3.784-1.132-.604-2.806-1.283-4.699-1.283-1.892 0-3.567.679-4.698 1.283-2.396-2.502-7.05-3.784-13.9-3.784-4.13 0-7.08.69-9.187 1.77h-6.717v4.7l2.205.757a10.62 10.62 0 0 0-.318 2.636c0 7.09 2.294 11.193 14.016 11.193 9.903 0 13.83-2.763 15.564-10.948a7.816 7.816 0 0 0 .092-2.853c.548-.341 1.45-.641 2.943-.641s2.396.3 2.943.641c-.142.897-.12 1.851.093 2.853 1.734 8.185 5.66 10.948 15.563 10.948 11.722 0 14.016-4.103 14.016-11.193 0-.862-.092-1.755-.317-2.636l2.205-.757v-4.7z"/>
                <path fill="#44372D" d="M158.195 166.562c-.048.277-.109.517-.169.77a81.527 81.527 0 0 1-2.046 7.286c-1.288 3.835-2.66 7.009-4.405 9.39-.807 1.118-1.71 2.055-2.72 2.813-1.938 1.454-4.31 2.224-7.319 2.224h-44.92c-3.142 0-5.585-.841-7.571-2.416-.915-.722-1.721-1.6-2.468-2.622-1.745-2.38-3.117-5.554-4.405-9.39a81.066 81.066 0 0 1-2.046-7.285c-.06-.253-.12-.493-.169-.745-7.041-30.96-4.947-85.833 11.014-102.364 6.548-6.78 14.648-12.744 28.105-12.744 10.665 0 17.97 3.75 23.796 8.692 1.529 1.275 2.949 2.645 4.31 4.052a23.817 23.817 0 0 1 1.576 1.827c14.516 18.42 16.237 70.636 9.437 100.512"/>
                <path fill="#E5E6E3" d="M106.776 159.567h31.641l2.487 14.037h-36.615l2.487-14.037"/>
                <path fill="#F1C9B1" d="M134.802 161.31v-15.78h-24.41v15.78l-6.103.48 6.103 39.89h24.41l6.102-39.89-6.102-.48"/>
                <path fill="#E49D7E" d="M135.27 162.374l-25.348-8.424v-4.21c4.145 2.926 8.582 4.747 12.674 4.747h.001c4.092 0 8.53-1.82 12.674-4.745v12.632"/>
                <path fill="#F1C9B1" d="M157.203 278.885h-71.56c-16.417 28.244 1.448 66.46 9.825 156.04 1.515 12.74-2.867 51.543-4.058 80.898l-2.475 24.158h15.934l2.373-24.158 8.518-81.214 4.319-107.934h1.344l1.344-8.578 3.031 189.148-.078 32.736h15.933l-.023-24.158c-.246-161.275 35.97-201.847 15.573-236.938"/>
                <path fill="#FFFFFE" d="M170.494 287.307l19.699-3.457-18.654-103.227-22.186 5.456 21.141 101.228"/>
                <path fill="#D5BD9E" d="M97.248 298.002l46.509 51.07 66.151-61.23-46.509-51.07-66.151 61.23"/>
                <path fill="#F3F4F1" d="M104.289 296.995l40.704 43.655 63.507-57.415-40.704-43.655-63.507 57.415"/>
                <path fill="#9FA2A1" d="M179.348 252.914l15.669 17.384-3.16 2.955c-.61.57-1.561.529-2.121-.092l-13.64-15.131a1.55 1.55 0 0 1 .091-2.16l3.161-2.956zm12.497 5.715a.988.988 0 0 1-1.413-.062 1.032 1.032 0 0 1 .06-1.44.988.988 0 0 1 1.414.062 1.033 1.033 0 0 1-.06 1.44zm-13.174-6.465l-3.16 2.956a2.583 2.583 0 0 0-.151 3.599l13.639 15.131a2.471 2.471 0 0 0 3.534.153l6.11-5.712-4.6-5.102c1.404-2.275 1.213-5.309-.658-7.384a5.923 5.923 0 0 0-7.167-1.296l-4.599-5.103-2.948 2.758z"/>
                <path fill="#F1C9B1" d="M190.193 307.26c-1.104-4.377-5.729-6.87-10.33-5.571-4.6 1.3-7.435 5.899-6.33 10.275l2.278 9.033c12.555-2.312 14.382-13.738 14.382-13.738"/>
                <path fill="#3B3940" d="M84.504 271.866h73.368s16.23 45.289-.835 121.298c-.11.493-.794.828-1.296.828H86.635c-.503 0-1.185-.335-1.296-.828-17.065-76.01-.835-121.298-.835-121.298"/>
                <path fill="#EBADC4" d="M105.208 163.778l.954 3.594c1.649 4.743 5.686 5.662 15.729 5.662 11.33 0 15.847-3.038 17.188-7.317l.515-1.939c20.87 7.87 14.466 73.46 14.466 73.46l.131 36.027-31.841.005-33.552-.005.875-36.027s-5.335-65.59 15.535-73.46"/>
                <path fill="#E379A3" d="M119.78 189.747a2.11 2.11 0 0 0 2.112 2.106 2.109 2.109 0 0 0 2.113-2.106 2.108 2.108 0 0 0-2.113-2.105 2.109 2.109 0 0 0-2.112 2.105M119.78 213.611a2.11 2.11 0 0 0 2.112 2.106 2.109 2.109 0 0 0 2.113-2.106 2.109 2.109 0 0 0-2.113-2.106 2.11 2.11 0 0 0-2.112 2.106M119.78 238.878a2.11 2.11 0 0 0 2.112 2.106 2.109 2.109 0 0 0 2.113-2.106 2.109 2.109 0 0 0-2.113-2.105 2.11 2.11 0 0 0-2.112 2.105M119.78 262.743c0 1.162.946 2.105 2.112 2.105a2.108 2.108 0 0 0 2.113-2.105 2.109 2.109 0 0 0-2.113-2.107 2.11 2.11 0 0 0-2.112 2.107M122.596 173.405l7.795 8.622 13.33-16.704-8.32-4.352-3.128 3.042-9.677 9.392M108.375 160.97l12.813 12.43-7.796 8.627-13.328-16.714 8.311-4.342"/>
                <path fill="#FFFFFE" d="M133.862 355.217l3.22 14.911 34.803-.004c-1.36-20.644-13.728-131.835-13.728-131.835 7.593-21.857 12.709-43.217 13.627-54.93.392-5.006-3.129-10.585-7.844-12.406l-24.687-8.579-5.39 70.2v122.643M109.922 355.217l-3.219 14.911-34.804-.004c1.36-20.644 13.728-131.835 13.728-131.835-7.593-21.857-10.236-43.217-11.153-54.93-.393-5.006 3.128-10.585 7.843-12.406l22.215-8.579 5.39 70.2v122.643"/>
                <path fill="#FFFFFE" d="M136.679 323.538l26.757 7.286v-30.615l-26.757-7.287v30.616"/>
                <g transform="translate(136.679 292.922)">
                    <mask id="d" fill="#fff">
                        <use xlink:href="#c"/>
                    </mask>
                    <path fill="#E5E6E3" d="M.27 2.365h.656V.272H.27z" mask="url(#d)"/>
                </g>
                <path fill="#E5E6E3" d="M162.815 302.749l-26.136-7.253v-2.574l26.757 7.427-.621 2.4M149.353 165.03l-.442 12.062-6.475 4.955 5.039 6.408-13.613 42.703 4.072-71.591 11.42 5.463M95.84 165.03l.441 12.062 6.476 4.955-5.04 6.408 13.613 42.703-4.07-71.591-11.42 5.463"/>
                <path fill="#F1C9B1" d="M93.924 284.5l2.064 5.056c1.855 1.026 6.904 4.403 9.49 10.74.59 1.442-.052 3.104-1.43 3.713a2.6 2.6 0 0 1-2.178-.04l.985 2.413c1.765 4.326-.159 9.311-4.296 11.137-4.138 1.825-8.922-.2-10.688-4.526l-8.93-21.882 14.983-6.611"/>
                <path fill="#E5E6E3" d="M97.556 291.519a18.88 18.88 0 0 0-1.836-1.156l-2.033-4.9-.711.308-9.81-23.657c.38-3.632.735-6.96 1.057-9.9l15.841 38.217-2.508 1.088"/>
                <path fill="#D5B39F" d="M96.938 291.519l-2.507-6.704.656-.315 1.875 5.01c.414.25 1.005.642 1.694 1.183l-1.718.826"/>
                <path fill="#FFFFFE" d="M80.352 298.537l18.304-7.693-23.034-53.766 9.424-21.751-9.443-36.108-20.008 54.785a9.762 9.762 0 0 0 .196 7.204l24.561 57.33M107.106 323.538l-26.757 7.286v-30.615l26.757-7.287v30.616"/>
                <path fill="#E5E6E3" d="M107.106 295.73v-2.808l1.312 2.62-1.312.188"/>
                <path fill="#E5E6E3" d="M80.97 302.749l-.621-2.4 26.757-7.427v2.574l-26.136 7.253"/>
                <path fill="#F1C9B1" d="M151.53 105.113v-12.87c0-13.67-15.757-30.938-28.23-30.938-12.472 0-28.229 17.269-28.229 30.938v12.87c-3.464 0-6.273 2.77-6.273 6.187v6.435c0 3.418 2.809 6.188 6.273 6.188 0 13.67 15.757 31.433 28.23 31.433 12.472 0 28.228-17.763 28.228-31.433 3.465 0 6.274-2.77 6.274-6.188V111.3c0-3.417-2.809-6.187-6.274-6.187"/>
                <path fill="#402E26" d="M135.27 149.74c8.191-6.197 15.15-17.393 15.15-26.693 3.3 0 5.974-2.768 5.974-6.182v-6.43 6.43c0 3.414-2.674 6.182-5.974 6.182 0 9.3-6.959 20.496-15.15 26.694"/>
                <path fill="#E7A689" d="M135.27 149.742v-.001.001"/>
                <path fill="#DA8162" d="M122.596 153.952c4.093 0 8.53-1.615 12.675-4.211-4.145 2.596-8.582 4.21-12.675 4.21"/>
                <path fill="#402E26" d="M149.353 85.168c-3.762-11.835-16.405-23.863-26.757-23.863h.001c10.351 0 22.994 12.028 26.756 23.863"/>
                <path fill="#E7A689" d="M121.838 155.356v-22.894l-6.283-1.238s1.7-10.2 6.283-19.8v-50.12c10.504 0 23.333 12.21 27.15 24.222.723 2.274 1.123 4.54 1.123 6.717v12.87c3.47 0 6.283 2.77 6.283 6.187v6.435c0 3.418-2.813 6.188-6.283 6.188 0 9.309-7.318 20.515-15.932 26.718v.001c-4.036 2.906-8.356 4.714-12.341 4.714m15.43-46.761l-.174.003a4.881 4.881 0 0 0-4.7 5.055 4.88 4.88 0 0 0 4.868 4.717l.173-.003a4.882 4.882 0 0 0 4.7-5.055 4.88 4.88 0 0 0-4.867-4.717"/>
                <path fill="#E49D7E" d="M105.695 116.05a4.218 4.218 0 0 1-4.22-4.064 4.216 4.216 0 0 1 4.225-4.358c2.265 0 4.14 1.79 4.22 4.065a4.217 4.217 0 0 1-4.075 4.355l-.15.003"/>
                <path fill="#2D211A" d="M109.92 110.289a4.217 4.217 0 0 1-4.075 4.355 4.22 4.22 0 0 1-4.37-4.062 4.217 4.217 0 0 1 4.075-4.355 4.219 4.219 0 0 1 4.37 4.062"/>
                <path fill="#FFFFFE" d="M109.921 110.387a1.405 1.405 0 0 1-1.358 1.452 1.406 1.406 0 0 1-1.457-1.354 1.405 1.405 0 0 1 1.359-1.452 1.406 1.406 0 0 1 1.456 1.354"/>
                <path fill="#2D211A" d="M112.69 106.867c-.882-1.81-3.136-3.181-5.613-3.415-1.518-.146-4.368.053-6.816 2.796a2.047 2.047 0 0 1-.362-.001 3.93 3.93 0 0 1-1.02-.24c-.751-.267-1.376-.828-1.376-.828l-.172-.025c-.074.031-.104.11-.068.176 0 0 .093.184.275.448.176.265.456.608.811.908.352.301.772.559 1.126.714.175.08.335.134.453.171.113.036.233.056.212.054.33.03.629-.127.773-.371 1.603-1.982 3.748-2.957 6.037-2.739 2.023.191 3.927 1.332 4.629 2.775.134.272.49.397.794.28.306-.118.448-.432.316-.703"/>
                <path fill="#DA8162" d="M136.676 116.05a4.219 4.219 0 0 1-4.22-4.064 4.216 4.216 0 0 1 4.226-4.358c2.265 0 4.14 1.79 4.219 4.065a4.217 4.217 0 0 1-4.074 4.355l-.15.003"/>
                <path fill="#2D211A" d="M140.901 110.289a4.217 4.217 0 0 1-4.074 4.355 4.22 4.22 0 0 1-4.37-4.062 4.217 4.217 0 0 1 4.074-4.355 4.219 4.219 0 0 1 4.37 4.062"/>
                <path fill="#FFFFFE" d="M140.903 110.387a1.405 1.405 0 0 1-1.358 1.452 1.406 1.406 0 0 1-1.457-1.354 1.405 1.405 0 0 1 1.358-1.452 1.406 1.406 0 0 1 1.457 1.354"/>
                <path fill="#2D211A" d="M131.095 106.867c.88-1.81 3.135-3.181 5.613-3.415 1.518-.146 4.367.053 6.815 2.796.118.009.226.011.362-.001a3.93 3.93 0 0 0 1.02-.24c.752-.267 1.377-.828 1.377-.828l.17-.025c.075.031.106.11.07.176 0 0-.094.184-.274.448a4.5 4.5 0 0 1-.813.908 4.792 4.792 0 0 1-1.125.714c-.175.08-.335.134-.453.171-.114.036-.233.056-.212.054a.809.809 0 0 1-.774-.371c-1.603-1.982-3.748-2.957-6.036-2.739-2.023.191-3.927 1.332-4.63 2.775-.134.272-.49.397-.794.28-.306-.118-.448-.432-.316-.703"/>
                <path fill="#E05844" d="M132.454 135.703c0 4.652-4.414 8.423-9.858 8.423-5.444 0-9.857-3.771-9.857-8.423h19.715"/>
                <path fill="#FFFFFE" d="M128.476 138.51h-13.167c-.642 0-1.162-.47-1.162-1.052v-1.755h15.49v1.755c0 .581-.52 1.053-1.161 1.053M139.537 119.514c-7.096 0-11.322-3.627-12.918-11.088-.73-3.18 5.107-5.873 12.918-5.873 3.54 0 11.36.304 11.36 3.702 0 2.214-.549 13.26-11.36 13.26zm-20.963-11.088c-1.596 7.461-5.822 11.088-12.918 11.088-10.812 0-11.36-11.045-11.36-13.259 0-3.398 7.819-3.702 11.36-3.702 7.81 0 13.648 2.693 12.918 5.873zm36.412-7.599h-4.335c-2.481-1.627-7.012-1.628-11.114-1.62-6.906 0-11.53 1.313-13.762 3.891-.77-.425-1.901-.55-3.179-.55-1.277 0-2.408.125-3.178.55-2.233-2.578-6.856-3.891-13.762-3.891-4.102-.008-8.633-.007-11.114 1.62h-4.336v4.54l1.875 1.009c.04 7.082 3.608 15.29 13.575 15.29 8.197 0 13.274-4.309 15.091-12.803a7.824 7.824 0 0 0 .174-1.789c.124-.473.76-.942 1.675-.942.916 0 1.552.47 1.676.942-.01.576.041 1.173.174 1.789 1.817 8.494 6.894 12.803 15.09 12.803 9.968 0 13.536-8.208 13.576-15.29l1.874-1.01v-4.539z"/>
                <path fill="#44372D" d="M93.6 149.74c-8.812-29.344-14.972-47.553-10.159-67.353 9.35-38.458 56.408-40.738 61.175-16.604 1.014 5.137 11.387 10.206 6.022 35.504-.412-.146-12.49-14.413-15.637-21.787-41.401-.128-27.547 61.12-41.401 70.24"/>
                <path fill="#9FA2A1" d="M149.299 190.498c-.048-1.145-1.285-25.999-14.028-32.335v2.886c10.364 6.68 11.487 29.3 11.498 29.555l.054 1.249 2.53-.106-.054-1.25M109.922 160.979v-2.816c-21.192 10.15-12.291 62.482-11.888 64.776l.21 1.2 2.54-.397-.21-1.2c-.094-.533-8.643-50.724 9.348-61.563"/>
                <path fill="#9FA2A1" d="M137.715 201.498c.18-3.428 1.469-11.399 9.526-11.399 8.056 0 9.345 7.971 9.525 11.399.427 8.127-3.218 17.372-9.525 22.32-6.307-4.948-9.952-14.193-9.526-22.32zm17.805 25.805c-2.24-.245-4.315-.979-6.203-2.076 6.554-5.583 10.307-15.292 9.858-23.862-.446-8.464-5.018-13.723-11.934-13.723-6.917 0-11.489 5.26-11.934 13.723-.45 8.57 3.303 18.279 9.857 23.862-1.887 1.097-3.962 1.831-6.202 2.076a1.222 1.222 0 0 0-1.071 1.353 1.214 1.214 0 0 0 1.198 1.098l.13-.007c2.94-.322 5.63-1.38 8.022-2.959 2.391 1.579 5.08 2.637 8.022 2.959l.13.007c.608 0 1.132-.468 1.197-1.098a1.222 1.222 0 0 0-1.07-1.353z"/>
                <path fill="#3B3940" d="M136.713 229.754c-.8 0-1.607-.027-2.416-.083-1.13-.079-1.95-.75-1.832-1.5.118-.751 1.13-1.289 2.258-1.218 1.323.091 2.64.092 3.907.002 1.104-.082 2.141.463 2.262 1.213s-.696 1.424-1.825 1.504c-.774.055-1.56.082-2.354.082M157.768 229.754c-.793 0-1.58-.027-2.353-.082-1.13-.08-1.947-.754-1.825-1.504.12-.75 1.148-1.296 2.26-1.213 1.27.09 2.585.09 3.91-.002 1.13-.071 2.14.467 2.256 1.218.118.75-.702 1.421-1.831 1.5-.81.056-1.617.083-2.417.083"/>
                <path fill="#E5E6E3" d="M108.514 223.437c0 4.264-3.468 7.72-7.746 7.72-4.278 0-7.745-3.456-7.745-7.72 0-4.263 3.467-7.72 7.745-7.72 4.278 0 7.746 3.457 7.746 7.72"/>
                <path fill="#9FA2A1" d="M100.064 212.91c-5.436 0-9.858 4.407-9.858 9.825 0 5.418 4.422 9.826 9.858 9.826 5.436 0 9.858-4.408 9.858-9.826s-4.422-9.826-9.858-9.826zm0 2.456c4.083 0 7.394 3.3 7.394 7.37s-3.311 7.369-7.394 7.369-7.393-3.3-7.393-7.37 3.31-7.37 7.393-7.37z"/>
                <path fill="#9FA2A1" d="M104.289 223.437c0 2.714-2.207 4.913-4.929 4.913-2.723 0-4.929-2.2-4.929-4.913s2.206-4.913 4.93-4.913c2.721 0 4.928 2.2 4.928 4.913"/>
            </g>
        </g>
    </g>
</svg>
