<svg width="111px" height="110px" viewBox="0 0 111 110" version="1.1" xmlns="http://www.w3.org/2000/svg" xmlns:xlink="http://www.w3.org/1999/xlink">
    <g stroke="none" stroke-width="1" fill="none" fill-rule="evenodd" opacity="0.400000006">
        <g transform="translate(-1135.000000, -2467.000000)">
            <g transform="translate(1135.000000, 2467.000000)">
                <path d="M108.712256,83.8398496 C110.676541,85.8066165 110.676541,89.0197744 108.712256,90.9857143 L91.2569925,108.443459 C89.2910526,110.406917 86.0762406,110.407744 84.1152632,108.443459 L80.2222556,104.553759 C78.2596241,102.588647 78.2612782,99.3754887 80.2222556,97.4095489 L97.68,79.9534586 C99.6426316,77.9858647 102.859098,77.9875188 104.823383,79.9526316 L108.712256,83.8398496" fill="#F79CB1"></path>
                <polyline fill="#298DCF" points="3.86488722 28.1674436 28.4362406 3.59443609 99.0628571 74.2210526 74.4923308 98.792406 3.86488722 28.1674436"></polyline>
                <polyline fill="#FCDDE9" points="0.508646617 0.237368421 28.4362406 3.59443609 3.86488722 28.1674436 0.508646617 0.237368421"></polyline>
                <polyline fill="#AAD2EC" points="10.4169173 1.4324812 0.508646617 0.237368421 1.69796992 10.1489474 10.4169173 1.4324812"></polyline>
                <polyline fill="#536579" points="3.86488722 28.1674436 12.1959398 19.8347368 82.8250376 90.4605263 74.4923308 98.7915789 3.86488722 28.1674436"></polyline>
                <polyline fill="#536579" points="20.1333083 11.8981955 28.4643609 3.56714286 99.0909774 74.1945865 90.762406 82.5231579 20.1333083 11.8981955"></polyline>
                <polyline fill="#FFFEFF" points="105.211278 80.3148872 80.6118045 104.912707 74.4923308 98.792406 99.0909774 74.1945865 105.211278 80.3148872"></polyline>
            </g>
        </g>
    </g>
</svg>