<svg width="31px" height="54px" viewBox="0 0 31 54" version="1.1" xmlns="http://www.w3.org/2000/svg" xmlns:xlink="http://www.w3.org/1999/xlink">
    <defs>
        <polygon id="path-1" points="0.006328125 54 30.7385508 54 30.7385508 0 0.006328125 0"></polygon>
    </defs>
    <g stroke="none" stroke-width="1" fill="none" fill-rule="evenodd">
        <g transform="translate(-1145.000000, -406.000000)">
            <g transform="translate(1083.000000, 376.000000)">
                <g transform="translate(62.000000, 30.000000)">
                    <path d="M28.7063789,14.1358711 L28.7063789,0.870960938 L2.03227734,0.870960938 L2.03227734,14.1358711 C2.03227734,20.2799531 6.18711328,25.452668 11.8400273,27 C6.18700781,28.547332 2.03227734,33.7200469 2.03227734,39.8641289 L2.03227734,53.1290391 L28.7062734,53.1290391 L28.7062734,39.8641289 C28.7062734,33.7200469 24.5514375,28.547332 18.8985234,27 C24.551543,25.452668 28.7063789,20.2798477 28.7063789,14.1358711" fill="#E8E8E8"></path>
                    <path d="M29.5773398,14.1358711 L29.5773398,0.870960938 L27.835418,0.870960938 L27.835418,14.1358711 C27.835418,19.7380547 24.0658594,24.6826406 18.668707,26.1599414 C18.2900742,26.2636172 18.027668,26.6074453 18.027668,27 C18.027668,27.3925547 18.2900742,27.7364883 18.668707,27.8400586 C24.0658594,29.3173594 27.835418,34.2617344 27.835418,39.863918 L27.835418,53.1290391 L29.5773398,53.1290391 L29.5773398,39.863918 C29.5773398,34.3010742 26.3160352,29.3072344 21.4072031,27 C26.3160352,24.6927656 29.5773398,19.6988203 29.5773398,14.1358711" fill="#FCF9F8"></path>
                    <g>
                        <mask id="mask-2" fill="white">
                            <use xlink:href="#path-1"></use>
                        </mask>
                        <g></g>
                        <path d="M12.0700547,26.1599414 C6.67279688,24.6826406 2.90323828,19.7380547 2.90323828,14.1358711 L2.90323828,0.870960938 L1.16131641,0.870960938 L1.16131641,14.1358711 C1.16131641,19.6988203 4.42262109,24.6927656 9.33145313,27 C4.42262109,29.3072344 1.16131641,34.3010742 1.16131641,39.863918 L1.16131641,53.1290391 L2.90323828,53.1290391 L2.90323828,39.863918 C2.90323828,34.2617344 6.67279688,29.3173594 12.0700547,27.8400586 C12.4486875,27.7363828 12.7110938,27.3925547 12.7110938,27 C12.7110938,26.6074453 12.4486875,26.2635117 12.0700547,26.1599414" fill="#FCF9F8" mask="url(#mask-2)"></path>
                        <path d="M29.8676953,54 L0.870960938,54 C0.389917969,54 0,53.6101875 0,53.1290391 C0,52.6478906 0.389917969,52.2580781 0.870960938,52.2580781 L29.8675898,52.2580781 C30.3486328,52.2580781 30.7385508,52.6478906 30.7385508,53.1290391 C30.7385508,53.6101875 30.3487383,54 29.8676953,54" fill="#999999" mask="url(#mask-2)"></path>
                        <path d="M29.8676953,1.74192187 L0.870960938,1.74192187 C0.389917969,1.74192187 0,1.35210937 0,0.870960937 C0,0.3898125 0.389917969,0 0.870960938,0 L29.8675898,0 C30.3486328,0 30.7385508,0.3898125 30.7385508,0.870960937 C30.7385508,1.35210937 30.3487383,1.74192187 29.8676953,1.74192187" fill="#999999" mask="url(#mask-2)"></path>
                    </g>
                    <path d="M16.2402891,35.3933086 L16.2402891,23.965875 C16.9558945,23.8997461 17.5111875,23.761582 17.9787305,23.6396602 C21.2930859,22.7757656 23.8190625,20.2050703 24.7894805,17.0319375 L5.94917578,17.0317266 C6.91959375,20.2049648 9.44546484,22.7756602 12.7599258,23.6396602 C13.2274688,23.7614766 13.7827617,23.8996406 14.4983672,23.965875 L14.4983672,35.3933086 C9.46497656,35.8345898 5.51622656,40.0579805 5.51622656,45.2060156 L5.51622656,49.6451953 L25.2225352,49.6451953 L25.2225352,45.2060156 C25.2225352,40.0579805 21.2737852,35.8344844 16.2402891,35.3933086" fill="#e4973a"></path>
                </g>
            </g>
        </g>
    </g>
</svg>
