<svg xmlns="http://www.w3.org/2000/svg" width="172" height="100" viewBox="0 0 172 100">
    <g fill="none" fill-rule="evenodd">
        <path fill="#282E2A" d="M65.814 33.734V31.84h2.17c.954 0 1.393.366 1.393.924 0 .63-.497.969-1.363.969h-2.2zm0-5.693h1.848c.851 0 1.29.323 1.29.881 0 .632-.483.923-1.349.923h-1.79v-1.804zm6.411 5.15c0-1.424-.793-2.128-2.04-2.539.91-.396 1.585-1.098 1.585-2.288 0-.733-.25-1.275-.66-1.686-.603-.601-1.512-.924-2.804-.924h-5.264V36.02h5.295c2.45 0 3.888-1.07 3.888-2.83zM76.486 33.63v-2.42h1.495c.925 0 1.481.47 1.481 1.188 0 .808-.556 1.233-1.495 1.233h-1.481zm5.824-1.158c0-2.317-1.805-3.491-4.269-3.491h-1.555v-3.228H73.64v10.268h4.546c2.51 0 4.123-1.334 4.123-3.55zM83.512 36.022h2.844v-10.27h-2.844zM93.134 36.227c2.275 0 3.58-.983 4.548-2.317l-2.142-1.526c-.615.747-1.245 1.246-2.317 1.246-1.438 0-2.45-1.202-2.45-2.743 0-1.525 1.012-2.742 2.45-2.742.983 0 1.672.454 2.258 1.188l2.084-1.614c-.91-1.262-2.214-2.17-4.313-2.17-3.109 0-5.413 2.346-5.413 5.338 0 3.095 2.362 5.34 5.295 5.34M113.205 25.753h-2.847v7.775h-2.919v-7.775h-2.844v7.775h-2.92v-7.775h-2.847v10.27h14.377zM119.98 29.054l1.143 2.92h-2.304l1.16-2.92zm-1.998 5.134h3.962l.747 1.834h3.052l-4.373-10.341h-2.741l-4.372 10.341h2.994l.731-1.834zM77.418 45.237H74.57v7.774h-2.92v-7.774h-2.843v7.774h-2.922v-7.774h-2.845v10.269h14.377zM89.263 55.506l-4.02-5.853 3.888-4.416h-3.374l-3.536 4.166v-4.166h-2.844v10.269h2.844v-2.657l1.042-1.157 2.582 3.814z"/>
        <path fill="#282E2A" d="M97.26 50.37c0 1.513-1.042 2.773-2.612 2.773-1.555 0-2.624-1.29-2.624-2.772 0-1.51 1.04-2.772 2.596-2.772 1.568 0 2.64 1.29 2.64 2.772m-8.157 0c0 2.978 2.348 5.34 5.517 5.34 3.168 0 5.543-2.392 5.543-5.34 0-2.977-2.346-5.339-5.515-5.339-3.168 0-5.545 2.39-5.545 5.339M110.75 55.506V45.237h-7.892v1.423c0 6.22-.762 6.63-1.568 6.63-.133 0-.528-.029-.66-.058l-.19 2.186c.218.072.952.234 1.7.234 1.994 0 3.374-1.261 3.374-7.525v-.395h2.392v7.774h2.845zM116.341 51.457l1.161-2.919 1.143 2.92h-2.304zm3.874 4.049h3.052l-4.373-10.342h-2.743l-4.371 10.342h2.993l.734-1.834h3.96l.748 1.834zM68.206 67.179c1.568 0 2.64 1.291 2.64 2.772 0 1.51-1.042 2.773-2.612 2.773-1.556 0-2.625-1.29-2.625-2.773 0-1.51 1.04-2.772 2.597-2.772m0 8.112c3.167 0 5.542-2.391 5.542-5.34 0-2.976-2.345-5.34-5.514-5.34-3.167 0-5.545 2.392-5.545 5.34 0 2.979 2.347 5.34 5.517 5.34M75.202 64.818v10.267h2.845v-3.902H81.7v3.902h2.845V64.818H81.7v3.843h-3.653v-3.843zM89.327 72.43l1.042-1.158 2.582 3.813h3.418l-4.019-5.853 3.888-4.415h-3.375l-3.536 4.166v-4.166h-2.843v10.268h2.843z"/>
        <path fill="#282E2A" d="M99.13 69.951c0-1.51 1.04-2.772 2.596-2.772 1.569 0 2.64 1.291 2.64 2.772 0 1.511-1.041 2.773-2.612 2.773-1.556 0-2.624-1.29-2.624-2.773m8.139 0c0-2.977-2.345-5.34-5.515-5.34-3.167 0-5.545 2.392-5.545 5.34 0 2.978 2.348 5.34 5.517 5.34 3.168 0 5.543-2.391 5.543-5.34M112.62 67.707v-.395h2.39v7.774h2.845V64.817h-7.89v1.422c0 6.22-.763 6.632-1.57 6.632-.133 0-.528-.03-.661-.059l-.19 2.186c.22.074.953.235 1.702.235 1.994 0 3.375-1.262 3.375-7.526M124.81 67.179c1.568 0 2.64 1.291 2.64 2.772 0 1.51-1.042 2.773-2.612 2.773-1.556 0-2.626-1.29-2.626-2.773 0-1.51 1.042-2.772 2.598-2.772m0 8.112c3.167 0 5.542-2.391 5.542-5.34 0-2.976-2.345-5.34-5.514-5.34-3.168 0-5.545 2.392-5.545 5.34 0 2.979 2.347 5.34 5.517 5.34M131.805 75.085h2.845v-7.774h4.548v-2.493h-7.393zM146.959 69.306v5.78h2.818V64.816h-2.656l-3.975 5.78v-5.78h-2.815v10.268h2.654zM158.344 69.306v5.78h2.816V64.816h-2.655l-3.975 5.78v-5.78h-2.816v10.268h2.655zM131.285 28.174h1.864v2.552h-1.878c-.968 0-1.525-.514-1.525-1.262 0-.836.586-1.29 1.54-1.29zm-1.451 7.847l2.067-3.11h1.248v3.11h2.845V25.754h-4.855c-2.333 0-4.255 1.1-4.255 3.505 0 1.6.837 2.641 2.112 3.183l-2.448 3.58h3.286z"/>
        <path fill="#E4973A" d="M110.974 86.384c-.044 1.13-.143 2.258-.132 3.387.014 1.465.108 2.93.182 4.394.013.25.074.502.146.75.068.23.25.43.582.59.342.167.186.144.591.06.843-.177 1.074-1.282 1.066-1.539-.037-1.114-.04-2.228-.118-3.34-.1-1.404-.102-2.216-.058-3.62.003-.13.023-.26.042-.389.008-.06.035-.12.058-.195.11-.008.216-.022.322-.024.515-.005 2.172.041 2.686.041.451.001.481.014.484.257.006.771-.098.951-.084 1.722.028 1.434.066 2.868.106 4.303.01.38.034.763.066 1.143.013.144.06.288.107.43.08.25.343.349.804.31.568-.05 1.302-.354 1.301-.974-.15-1.623-.005-3.337-.156-4.96-.066-.708-.116-1.418-.169-2.126-.025-.36.034-1.566-.258-1.862-.293-.295-3.95-.08-5.925-.075-.66.002-1.16-.095-1.786.026-.654.126.04 1.113.097 1.283.046.133.052.272.046.408M164.084 92.427c-.775 1.241-2.322 1.764-3.21 1.054-.808-.648-.842-1.265-.907-2.08-.063-.814-.049-1.629.146-2.439.104-.43.24-.86.377-1.289.037-.116 1.058-1.103 1.904-1.266 1.41-.272 2.184 1.14 2.458 1.844.539 1.38.104 2.78-.768 4.176m.803-7.437c-.583-.265-1.226-.35-1.918-.282-.522.05-1.046.097-1.57.127-.34.02-.682.01-1.022.007a1.789 1.789 0 0 0-.98.277c-.296.19-.519.433-.767.656-.506.456-.713.992-.878 1.54-.297.986-.343 1.984-.354 2.984a4.913 4.913 0 0 0 .442 2.124c.354.774.822 1.495 1.775 2.045.817.472 1.678.775 2.764.773.496-.001.966-.035 1.388-.214.307-.13.616-.27.875-.442a5.392 5.392 0 0 0 1.379-1.307c.941-1.285 1.387-2.649 1.366-4.086 0-.104-.002-.21 0-.314.022-.993-.37-1.911-1.067-2.774a3.845 3.845 0 0 0-1.433-1.114M171.67 83.143c-.208-1.621-2.38-1.279-2.458.11-.03.538.03 1.077.03 1.615-.003.76-.017 2.406-.04 3.166-.023.791-.065.344-.095 1.135a68.267 68.267 0 0 0-.032 1.814c0 .891 1.281 1.658 1.554 1.721.247.057.368-.53.366-.76-.007-.477.028-.595.106-1.066.051-.305.564-6.19.565-6.8 0-.181.045-.362.05-.544.003-.13-.03-.267-.046-.39M148.9 92.312c.193.19.42.323.757.382.307.054.456.002.451-.215-.008-.446.034-.069.13-.511.065-.286.12-.575.136-.863.046-.869.132-1.13.476-1.112.787.042 1.574.093 2.358.157.45.037.445.052.43.361-.036.802-.08 1.604-.105 2.406-.026.823.209 1.804.845 2.313.538.431 1.132-.25 1.203-.42.184-.447.243-.906.247-1.366.014-1.806.026-3.611.017-5.416-.003-.594-.075-1.187-.122-1.78-.092-1.153-.5-1.801-1.045-1.804-.546-.003-.964.842-.974 1.1-.01.304-.035.608-.033.912.009.832.03 1.291.044 2.123.002.088-.012.176-.023.295-.114-.022-.181-.026-.234-.046-.337-.132-.706-.18-1.083-.218-.536-.053-1.07-.11-1.605-.168-.266-.029-.297-.048-.302-.225a73.808 73.808 0 0 1-.02-1.716c0-.17-.162-2.054-1.045-2.054-.988 0-1.192.85-1.194 1.047-.004.505.038 1.01.037 1.515a62.777 62.777 0 0 1-.044 2.14c-.03.742-.154 1.287-.153 1.688 0 .836.165.804.851 1.475M123.218 86.302c.001-.092.07-.137.2-.152.952-.107 2.407.014 3.242.352a.45.45 0 0 1 .303.363c.069.371-.143.678-.474.951a2.38 2.38 0 0 1-.83.46c-.469.143-1.505.252-1.981.384-.08.022-.17.022-.286.035-.03-.094-.076-.173-.08-.253-.036-.675-.065-1.35-.096-2.026-.002-.038.001-.076.002-.114m-2.56 3.167c.263.22.502.452.478.76-.048.644-.094 1.29-.146 1.935-.044.56-.097 1.12-.144 1.68-.01.116.04.218.103.33.134.24 1.019 1.074 1.519 1.16.411.07.763-.083.82-.355.024-.114.057-.229.066-.343.054-.715.113-1.429.151-2.143.026-.493.019-.985.033-1.478.005-.202.033-.228.284-.244a15.56 15.56 0 0 0 2.663-.447c.77-.205 1.466-.492 2.015-.933.537-.432.745-.924.62-1.48-.177-.802-.753-1.455-1.652-1.974-.343-.198-.705-.381-1.066-.564-.755-.381-1.58-.67-2.472-.869-.433-.097-2.686-.187-2.769 1.012.002 1.039.02 2.077.027 3.116.002.362-.41.497-.6.53-.033.005-.063.054-.07.086-.017.09.06.154.14.221"/>
        <path fill="#E4973A" d="M142.356 94.99c.577.254 1.227.362 1.876.478.65.117 1.311.117 1.967.057a7.296 7.296 0 0 0 2.579-.744c.508-.25.902-.572 1.028-1.018.046-.16-.045-.254-.2-.345-.095-.055-.234-.075-.272-.179-.01-.027-.105-.044-.164-.056-.05-.01-.114.005-.157-.01-.354-.12-.363-.133-.654-.007-.594.258-1.181.524-1.762.795-.622.29-1.31.453-2.047.532-.5.053-.947 0-1.263-.307-.112-.11-.243-.21-.341-.324-.408-.476-.635-.999-.678-1.544a6.008 6.008 0 0 1 .297-2.456c.295-.858.807-2.195 1.802-2.946.857-.648 1.717-.446 2.068-.492.133-.018.255-.076.356-.109l.056-.21c.009-.034.044-.08.024-.104-.132-.156.348-.625.074-.721-.423-.149-3.648-1.506-5.453.78-1.125 1.425-1.828 3.6-1.77 5.243.028.791.254 1.548.776 2.257.433.59 1.045 1.07 1.858 1.43M170.72 93.591c-.293-.097-.944-.634-1.335-.538-.392.098-.719.39-.719.39-.228.316-.62 1.12-.394 1.51.227.391.944.904 1.4.929.456.025 1.37-.608 1.469-.95.098-.34-.128-1.243-.421-1.34M99.2 96.59c.868-.04.97-.361 1.583-1.085.611-.724 1.533-2.85 1.533-2.85l3.98-.85s.459.604.714 1.449c.255.844 1.072 1.527 1.684 1.246.613-.282.715-.724.511-1.327-.204-.603-.766-1.77-.766-1.77s1.684-.683 1.48-1.125c-.203-.443-1.99-.282-1.99-.282s-.562-1.085-.766-1.689c-.204-.603-.817-2.05-1.123-2.05-.307 0-.408 1.126-.46 1.85-.05.723.46 2.17.46 2.17l-2.91.484s2.093-4.545 2.297-5.027c.205-.482.613-1.246-.408-1.287-1.02-.04-2.552 2.131-3.063 3.016 0 0-.306.563-.817 1.528-.51.965-1.786 3.94-2.245 5.026-.46 1.086-.562 2.614.306 2.574M128.95 95.66c.869-.04.97-.361 1.583-1.085s1.104-1.92 1.104-1.92l3.98-.849s.648 1.387.903 2.232c.255.844 1.072 1.528 1.685 1.246.612-.281.714-.723.51-1.327-.204-.603-.954-2.553-.954-2.553s1.685-.684 1.481-1.126c-.205-.443-1.99-.282-1.99-.282s-.562-1.085-.767-1.689c-.204-.603-.817-2.05-1.122-2.05-.307 0-.409 1.126-.46 1.85-.051.723.46 2.171.46 2.171l-2.91.482s2.093-4.543 2.297-5.026c.204-.482.613-1.246-.409-1.287-1.02-.04-2.552 2.131-3.062 3.016 0 0-.307.563-.817 1.528-.51.965-1.358 3.01-1.818 4.096-.459 1.085-.56 2.613.307 2.574M36.306 76.376H6.494V29.262h6.494v-6.254H.238V82.63h47.907l-5.92-3.128z"/>
        <path fill="#E4973A" d="M21.623 23.008v-12.23l22.826 12.23.257.137V71.062L21.623 58.692V23.008zM15.367.332v62.107l20.696 11.087 5.32 2.85 5.837 3.128 3.742 2.004V19.4L15.394.346l-.027-.014zM90.896 95.238c.632-.392.661-2.102.639-3.82-.004-.316-.007-.59 0-.766.003-.058.006-.094.007-.1a.842.842 0 0 1 .192-.029l.155-.017a36.638 36.638 0 0 0 2.847-.44c.26-.053.338-.027.36-.007.038.033.03.164.026.26l-.037.66a90.5 90.5 0 0 0-.089 1.8c-.033.877.454 2.002 1.062 2.456.099.074.275.11.477.11.193 0 .41-.033.602-.102.301-.109.488-.281.535-.477.205-.424.304-.882.307-1.444.01-1.063-.054-3.461-.105-5.388-.033-1.289-.065-2.507-.053-2.606.014-.118-.032-.249-.137-.386-.227-.294-.684-.56-1.04-.605a1.3 1.3 0 0 0-1.039.302c-.258.218-.4.5-.405.666l-.012.24c-.014.32-.032.717-.029.961.006.442.015.61.026.788.01.165.02.337.028.746 0 .055-.006.11-.014.173-.002.006-.002.013-.003.02-.122.01-.352.042-.798.105-.877.122-2.204.311-2.609.27-.074-.007-.228-.021-.251-.042a.26.26 0 0 1-.01-.08 101.97 101.97 0 0 1-.026-2.258c0-.048.007-.13.015-.225.036-.43.04-.639-.029-.736-.148-.209-.458-.644-.915-.787-.195-.06-.573-.123-.933.127-.466.323-.73 1.042-.786 2.14a56.661 56.661 0 0 1-.052 2.18c-.021.447-.052.894-.084 1.341-.02.31-.043.622-.06.933-.025.438-.045.835-.044 1.235 0 .75.122 1.955.39 2.287.492.614 1.618.683 1.892.515M66.4 91.517c.043-.793.086-1.614.06-2.165-.014-.3-.014-.3.452-.338.48-.04 1.123-.163 1.804-.295.738-.142 1.5-.288 2.027-.317.092-.004.3-.015.337.019.023.02.028.135.03.19.017.45.033 1.039.049 1.655.024.933.05 1.898.085 2.567.01.173.017.401.025.634.009.268.018.542.03.742l.007.149c.037.609.053.886.295 1.344.152.287.344.45.572.482.438.057.86-.369 1.09-.601l.083-.087c.54-.814.65-1.677.65-2.805.002-.512-.021-1.901-.047-2.42-.018-.391-.042-.782-.065-1.172-.02-.336-.04-.672-.058-1.008.195-.129.799-.58.799-1.243-.018-.47-.656-.835-.874-.946-.007-.414-.011-.827-.013-1.24 0-.314.011-.514.022-.708.01-.202.023-.412.02-.742.026-.663-.257-1.012-.499-1.188a1.226 1.226 0 0 0-1.12-.159c-.997.303-1.017 1.77-1.017 1.935.002.778-.013 1.55-.028 2.204-.003.15-.003.15-.288.18-.558.062-3.051.626-4.116.867l-.332.075-.002-.02a1.87 1.87 0 0 1-.017-.221l.022-1.124c.014-.695.028-1.39.035-2.086.003-.261-.01-.525-.024-.78-.007-.133-.014-.265-.019-.398-.007-.224-.175-.67-.525-.957a1.09 1.09 0 0 0-.894-.243c-.873.139-1.415 1.33-1.364 1.774.023.207.003.409-.018.62-.006.063-.012.124-.016.185-.016.202-.035.405-.053.608-.05.553-.101 1.124-.103 1.689a60.641 60.641 0 0 1-.041 1.776c-.021.6-.047 1.228-.074 1.876l-.02.491c-.056 1.354-.109 2.716-.1 3.834 0 .117-.002.24-.004.365-.01.502-.02 1.072.18 1.553.143.348.41.595.77.714.163.053.337.077.505.077.273 0 .528-.063.68-.155.755-.457 1.097-1.516 1.041-3.236-.015-.49.025-1.233.061-1.95M75.7 90.375a79.5 79.5 0 0 1 .023 2.989l-.007.132c-.028.443-.094 1.48.527 1.742l.021.01.025-.001c.157-.008.323-.001.474-.02.233-.028.611-.072 1.078-.125 2.76-.318 5.742-.675 6.226-.884.148-.064.28-.155.372-.258.148-.166.166-.512.04-.805-.126-.294-.363-.468-.652-.477a8.625 8.625 0 0 1-.337-.017 6.847 6.847 0 0 0-.466-.011c-.705.005-1.394.087-2.061.165-.661.078-1.344.16-2.036.164-.068 0-.133-.002-.22-.006l-.04-.001c.02-.33.027-.686.035-1.033.01-.358.017-.728.039-1.07.316-.043 1.151-.227 2.259-.475l.731-.163c1.163-.255 1.88-.702 1.826-1.139-.039-.312-.458-.486-1.077-.468-.585.003-1.189.085-1.773.163-.574.078-1.168.158-1.736.162h-.008c-.06 0-.12-.003-.193-.008l-.07-.004-.004-.009a.716.716 0 0 1-.038-.147c-.046-.385-.062-.677-.078-.958-.014-.28-.03-.569-.076-.96a.29.29 0 0 0-.016-.086c.03-.02.197-.041.345-.06.334-.04 3.799-.547 4.509-.67.759-.133.991-.56.955-.915-.039-.388-.424-.796-.983-.796h-.032c-.82.023-1.621.143-2.394.26-.51.076-1.038.155-1.567.207l-.887.085c-2.02.338-2.532.843-2.73 1.604-.014.055-.03.11-.047.166-.057.196-.116.4-.11.608.017.515.048 1.036.076 1.54.03.515.062 1.046.078 1.569M165.353 96.748l-97.76.603c-1.327-.004-2.431 2.318-.718 2.318l98.132-1.527c2.018-.127 1.215-1.394.346-1.394"/>
    </g>
</svg>
